<?xml version="1.0" standalone="no"?>
<!DOCTYPE svg PUBLIC "-//W3C//DTD SVG 1.1//EN" "http://www.w3.org/Graphics/SVG/1.1/DTD/svg11.dtd" >
<svg xmlns="http://www.w3.org/2000/svg">
<metadata></metadata>
<defs>
<font id="lulo_cleanone_bold" horiz-adv-x="2168" >
<font-face units-per-em="2048" ascent="1638" descent="-410" />
<missing-glyph horiz-adv-x="1046" />
<glyph unicode=" "  horiz-adv-x="1046" />
<glyph unicode="&#x09;" horiz-adv-x="1046" />
<glyph unicode="&#xa0;" horiz-adv-x="1046" />
<glyph unicode="!" horiz-adv-x="1132" d="M72 223q0 106 76 182t182 76t182 -76t76 -182t-76 -182t-182 -76t-182 76t-76 182zM102 1597h457l-92 -1015h-272z" />
<glyph unicode="&#x22;" horiz-adv-x="1529" d="M92 1597h397l-61 -712h-274zM569 1597h398l-62 -712h-274z" />
<glyph unicode="#" horiz-adv-x="2080" d="M80 332v350h262l39 231h-201v353h262l60 331h338l-60 -331h209l60 331h337l-59 -331h203v-353h-264l-39 -231h203v-350h-265l-57 -332h-338l57 332h-209l-57 -332h-338l58 332h-201zM680 682h209l39 231h-209z" />
<glyph unicode="$" horiz-adv-x="1701" d="M80 563v12h399v-2q0 -48 36 -86t114 -38q31 0 52 6.5t30 16.5t12.5 18t3.5 16q0 19 -32.5 43.5t-133.5 71.5q-12 6 -39 18q-51 24 -79.5 37.5t-80.5 42.5t-83.5 52t-71.5 59.5t-62.5 72.5t-38.5 83.5t-16 98.5q0 132 93 231t247 138v195h365v-199q155 -44 247.5 -153.5 t92.5 -262.5v-12h-400v2q0 48 -32 86.5t-101 38.5q-28 0 -47 -6.5t-27 -17t-11 -17.5t-3 -14q0 -48 154 -109q147 -58 215 -96q268 -150 268 -373q0 -140 -97.5 -240.5t-258.5 -136.5v-190h-365v198q-161 44 -255.5 152t-94.5 264z" />
<glyph unicode="%" horiz-adv-x="2705" d="M72 1180q0 186 131 317t317 131q121 0 224.5 -60t164 -163t60.5 -225q0 -185 -132 -316t-317 -131q-186 0 -317 130.5t-131 316.5zM324 0l1151 1597h444l-1151 -1597h-444zM414 1180q0 -44 31 -75.5t75 -31.5t76.5 31.5t32.5 75.5t-32.5 76t-76.5 32t-75 -32t-31 -76z M1268 410q0 186 131 317t317 131q121 0 224.5 -60t164 -163t60.5 -225q0 -185 -132 -316t-317 -131q-186 0 -317 130.5t-131 316.5zM1610 410q0 -44 31 -75.5t75 -31.5t76.5 31.5t32.5 75.5t-32.5 76t-76.5 32t-75 -32t-31 -76z" />
<glyph unicode="&#x26;" horiz-adv-x="2148" d="M49 420q0 76 25 139.5t74.5 116t103.5 91.5t131 83q-125 167 -125 328q0 123 66.5 227t178.5 163.5t242 59.5q128 0 238.5 -57.5t176 -156.5t65.5 -216q0 -228 -279 -393l172 -187q147 120 240 213l289 -276q-135 -132 -258 -229l301 -326h-523l-100 109 q-257 -140 -485 -140q-127 0 -230.5 38t-168 101.5t-99.5 143.5t-35 168zM457 451q0 -47 35.5 -77t97.5 -30q82 0 203 57l-201 217q-135 -85 -135 -167zM639 1182q0 -30 20 -62.5t66 -81.5q137 83 137 152q0 40 -33.5 67t-76.5 27q-46 0 -79.5 -30.5t-33.5 -71.5z" />
<glyph unicode="'" horiz-adv-x="1052" d="M92 1597h397l-61 -712h-274z" />
<glyph unicode="(" horiz-adv-x="1359" d="M49 799q0 212 46.5 408.5t127.5 353.5t179 281t212 218l252 -313q-82 -64 -152 -156t-127 -210t-89.5 -268.5t-32.5 -313.5t32.5 -313t89.5 -268t127 -210.5t152 -157.5l-252 -311q-114 93 -212 217t-179 281t-127.5 354t-46.5 408z" />
<glyph unicode=")" horiz-adv-x="1359" d="M23 -147q82 64 152 156t127 210t89.5 268.5t32.5 313.5t-32.5 313t-89.5 268t-127 210t-152 157l251 311q114 -93 212 -217t179.5 -281t128 -353.5t46.5 -407.5q0 -171 -31 -333t-84 -295.5t-126.5 -254t-154 -212.5t-170.5 -167z" />
<glyph unicode="*" horiz-adv-x="1574" d="M76 1112l125 377l205 -121l-48 229h398l-51 -235l202 115l123 -379l-235 -23l170 -153l-322 -234l-96 217l-94 -213l-320 236l178 159z" />
<glyph unicode="+" horiz-adv-x="1593" d="M84 563v371h291v287h373v-287h290v-371h-290v-289h-373v289h-291z" />
<glyph unicode="," horiz-adv-x="1132" d="M51 -207q111 120 152 197l-29 26q-28 26 -46.5 47.5t-37 66t-18.5 93.5q0 106 76 182t182 76t181 -76t75 -202q0 -118 -95.5 -256t-279.5 -309z" />
<glyph unicode="-" horiz-adv-x="1325" d="M117 475v383h620v-383h-620z" />
<glyph unicode="." horiz-adv-x="1126" d="M70 223q0 106 76 182t182 76t182 -76t76 -182t-76 -182t-182 -76t-182 76t-76 182z" />
<glyph unicode="/" horiz-adv-x="2189" d="M45 -365l1186 2327h442l-1190 -2327h-438z" />
<glyph unicode="0" horiz-adv-x="1947" d="M63 799q0 129 27 249.5t82.5 226t134 184t188.5 124t240 45.5t241 -45.5t190 -124t135.5 -183.5t84 -226t27.5 -250t-27.5 -250.5t-84 -226.5t-136 -184t-190 -124t-240.5 -45t-240 45t-188.5 123.5t-134 184t-82.5 226.5t-27 251zM471 799q0 -199 74 -316.5t190 -117.5 q117 0 193 118t76 316t-76 315t-193 117q-116 0 -190 -116.5t-74 -315.5z" />
<glyph unicode="1" horiz-adv-x="1275" d="M63 1051v426l351 120h274v-1597h-407v1126z" />
<glyph unicode="2" horiz-adv-x="1798" d="M74 0v309l565 522q110 103 149 154.5t39 110.5q0 61 -41 98t-112 37q-80 0 -130 -47.5t-50 -132.5v-47h-400v47q0 114 34.5 211t92.5 163.5t134.5 113t158.5 68t166 21.5q151 0 277.5 -62.5t205 -185.5t78.5 -284q0 -90 -25.5 -170t-81.5 -154t-91.5 -112.5 t-106.5 -105.5q-17 -16 -25 -24l-135 -122h455v-408h-1157z" />
<glyph unicode="3" horiz-adv-x="1753" d="M41 127l221 336q184 -98 332 -98q98 0 149.5 34t51.5 95q0 149 -385 149v332q84 0 149 9.5t103.5 25t62.5 37t32.5 42t8.5 44.5q0 47 -40 83.5t-110 36.5q-25 0 -49 -5t-49 -17t-40 -36.5t-15 -59.5v-9h-387v41q0 108 46.5 197t123.5 145.5t173 87.5t199 31 q106 0 205 -31t176.5 -87t124.5 -141t47 -185q0 -106 -48.5 -200.5t-147.5 -162.5q118 -60 180 -152t62 -210q0 -147 -84 -260t-221.5 -171.5t-303.5 -58.5q-287 0 -567 158z" />
<glyph unicode="4" horiz-adv-x="1839" d="M33 274v318l561 1005h455l-533 -940h246v301h395v-301h156v-383h-156v-274h-395v274h-729z" />
<glyph unicode="5" horiz-adv-x="1806" d="M35 319l348 203q116 -153 270 -153q93 0 149 48t56 122q0 64 -39 113.5t-123 49.5q-121 0 -239 -118l-346 159l153 854h899v-411h-596l-18 -156q76 35 205 35q223 0 371.5 -151.5t148.5 -376.5q0 -161 -81 -291.5t-222.5 -203.5t-315.5 -73q-203 0 -363 98t-257 252z" />
<glyph unicode="6" horiz-adv-x="1802" d="M53 571q0 100 30.5 189.5t102.5 202.5l406 634h493l-325 -491q145 -5 261 -69.5t184.5 -183t68.5 -271.5q0 -169 -81 -310t-219.5 -222t-303.5 -81q-170 0 -312 81.5t-223.5 220t-81.5 300.5zM453 588q0 -96 61.5 -157.5t151.5 -61.5q88 0 148 62t60 151q0 87 -60.5 148 t-149.5 61q-94 0 -168 -84q-43 -57 -43 -119z" />
<glyph unicode="7" horiz-adv-x="1662" d="M66 1188v409h1091v-329l-625 -1268h-462l620 1188h-624z" />
<glyph unicode="8" horiz-adv-x="1859" d="M61 473q0 249 211 373q-147 112 -147 313q0 138 79 246.5t208.5 165.5t283.5 57q151 0 280.5 -57t209.5 -165.5t80 -246.5q0 -197 -152 -313q213 -125 213 -373q0 -147 -88 -263.5t-231 -178.5t-312 -62q-172 0 -316.5 62t-231.5 178.5t-87 263.5zM479 508q0 -72 59 -126 t158 -54q96 0 154.5 54t58.5 126t-58.5 126t-154.5 54q-100 0 -158.5 -53.5t-58.5 -126.5zM530 1141q0 -62 43.5 -107t122.5 -45q77 0 120.5 45t43.5 107q0 57 -43.5 100t-120.5 43q-78 0 -122 -43t-44 -100z" />
<glyph unicode="9" horiz-adv-x="1802" d="M57 1016q0 127 48 240.5t129 195t193 129t235 47.5q127 0 241.5 -48t196.5 -129.5t130 -192.5t48 -232q0 -100 -30.5 -189t-102.5 -202l-406 -635h-493l325 492q-145 5 -261 69.5t-184.5 183t-68.5 271.5zM457 1016q0 -87 61 -148t150 -61q94 0 168 84q43 57 43 119 q0 96 -61.5 157.5t-151.5 61.5q-88 0 -148.5 -62t-60.5 -151z" />
<glyph unicode=":" horiz-adv-x="1187" d="M100 223q0 106 76 182t182 76t182 -76t76 -182t-76 -182t-182 -76t-182 76t-76 182zM100 907q0 106 76 182t182 76t182 -76t76 -182t-76 -182t-182 -76t-182 76t-76 182z" />
<glyph unicode=";" horiz-adv-x="1189" d="M82 -207q109 118 151 197l-29 26q-28 26 -46.5 47.5t-37 66t-18.5 93.5q0 106 76 182t182 76t181 -76t75 -202q0 -119 -95.5 -257t-278.5 -308zM98 907q0 106 76 182t182 76t182 -76t76 -182t-76 -182t-182 -76t-182 76t-76 182z" />
<glyph unicode="&#x3c;" horiz-adv-x="1669" d="M76 571v355l989 465v-435l-508 -206l508 -209v-432z" />
<glyph unicode="=" horiz-adv-x="1658" d="M117 334v371h954v-371h-954zM117 795v372h954v-372h-954z" />
<glyph unicode="&#x3e;" horiz-adv-x="1669" d="M133 109v434l508 207l-508 208v433l989 -463v-355z" />
<glyph unicode="?" horiz-adv-x="1681" d="M74 1065v68q0 97 33 179.5t88 139.5t127 97.5t149.5 59.5t155.5 19q133 0 246.5 -56t184 -165t70.5 -250q0 -74 -20.5 -138t-57 -112t-71.5 -80t-80 -63q-11 -8 -47.5 -33t-50 -36t-35.5 -33t-30.5 -43.5t-8.5 -47.5v-4h-350v66q0 57 16 109t36.5 87.5t57.5 73.5t62 58 t67 51q51 39 75 68t24 69q0 36 -26.5 66t-78.5 30q-58 0 -97.5 -40t-39.5 -122v-18h-399zM297 223q0 106 76 182t182 76t182 -76t76 -182t-76 -182t-182 -76t-182 76t-76 182z" />
<glyph unicode="@" horiz-adv-x="2437" d="M78 725q0 131 36.5 256.5t101.5 232t157 196.5t200 153t234 98t256 35q173 0 326.5 -66t262.5 -178.5t172.5 -267.5t63.5 -328q0 -138 -41 -253.5t-109.5 -191t-156.5 -117.5t-182 -42q-87 0 -167.5 36.5t-139.5 114.5q-68 -24 -146 -24q-162 0 -271.5 112t-109.5 273 q0 119 63 222.5t168 163.5t224 60q162 0 271.5 -112t109.5 -273q0 -130 -76 -243q31 -33 80 -33q73 0 123.5 77t50.5 208q0 113 -41.5 215t-113.5 176t-173 117.5t-215 43.5q-172 0 -321.5 -86t-237.5 -233t-88 -319q0 -112 41.5 -212.5t113 -173.5t173 -116t215.5 -43 q126 0 219 37l147 -248q-201 -88 -395 -88q-173 0 -326.5 64.5t-262.5 174.5t-172.5 261.5t-63.5 320.5zM870 786q0 -45 29 -75.5t74 -30.5q51 0 88 36t37 87q0 45 -31 75.5t-76 30.5q-51 0 -86 -36t-35 -87z" />
<glyph unicode="A" d="M0 0l647 1597h406l645 -1597h-447l-88 233h-628l-89 -233h-446zM674 604h350l-174 469z" />
<glyph unicode="B" horiz-adv-x="2031" d="M123 0v1597h795q250 0 384 -121t134 -319q0 -228 -195 -336q126 -47 196 -140.5t70 -229.5q0 -201 -140 -326t-380 -125h-864zM532 371h410q152 0 152 143q0 137 -152 137h-410v-280zM532 971h338q152 0 152 127q0 59 -33 93t-96 34h-361v-254z" />
<glyph unicode="C" horiz-adv-x="2144" d="M47 799q0 168 68 322t182.5 264.5t271 176.5t326.5 66q243 0 445.5 -124.5t310.5 -329.5l-373 -168q-55 103 -157 165t-226 62q-180 0 -307 -126.5t-127 -307.5t127 -307.5t307 -126.5q125 0 226.5 61.5t156.5 165.5l375 -164q-106 -207 -310 -333t-448 -126 q-170 0 -326.5 66t-271 177t-182.5 265t-68 322z" />
<glyph unicode="D" horiz-adv-x="2146" d="M123 0v1597h741q182 0 328 -63.5t238.5 -173.5t141 -253t48.5 -308q0 -132 -30 -250.5t-92.5 -219t-151 -174t-212 -114.5t-270.5 -41h-741zM532 395h302q179 0 275.5 109.5t96.5 294.5q0 184 -96.5 292.5t-275.5 108.5h-302v-805z" />
<glyph unicode="E" horiz-adv-x="1896" d="M123 0v1597h1227v-397h-818v-229h672v-371h-672v-205h818v-395h-1227z" />
<glyph unicode="F" horiz-adv-x="1832" d="M123 0v1597h1186v-397h-779v-282h654v-371h-654v-547h-407z" />
<glyph unicode="G" horiz-adv-x="2174" d="M47 799q0 168 68 321.5t182 264.5t270.5 177t327.5 66q202 0 380 -90t296 -244l-334 -225q-61 77 -150.5 120.5t-191.5 43.5q-181 0 -307.5 -126.5t-126.5 -307.5t126.5 -307.5t307.5 -126.5q105 0 194.5 48.5t147.5 133.5v45h-387v340h770v-932h-322v150 q-57 -87 -166.5 -134t-236.5 -47q-171 0 -327.5 66t-270.5 177t-182 265t-68 322z" />
<glyph unicode="H" horiz-adv-x="2185" d="M123 0v1597h407v-620h652v620h409v-1597h-409v594h-652v-594h-407z" />
<glyph unicode="I" horiz-adv-x="1126" d="M123 0v1597h409v-1597h-409z" />
<glyph unicode="J" horiz-adv-x="1832" d="M33 592v139h409v-133q0 -68 16 -116t46 -72.5t64 -34.5t77 -10q99 0 150 50t51 183v999h407v-1005q0 -156 -48 -277t-132 -195.5t-192.5 -112.5t-235.5 -38q-123 0 -231 38t-194 112t-136.5 196t-50.5 277z" />
<glyph unicode="K" horiz-adv-x="2043" d="M123 0v1597h409v-550l496 550h528l-630 -686l663 -911h-508l-440 602l-109 -121v-481h-409z" />
<glyph unicode="L" horiz-adv-x="1794" d="M123 0v1597h407v-1202h766v-395h-1173z" />
<glyph unicode="M" horiz-adv-x="2463" d="M123 0v1597h412l460 -1009l463 1009h412v-1597h-408v752l-332 -691h-268l-332 691v-752h-407z" />
<glyph unicode="N" horiz-adv-x="2185" d="M123 0v1597h348l713 -892v892h407v-1597h-346l-713 891v-891h-409z" />
<glyph unicode="O" horiz-adv-x="2260" d="M47 799q0 168 68 322t182.5 264.5t271 176.5t326.5 66q172 0 329 -66t270.5 -177t181 -264.5t67.5 -321.5t-67.5 -322t-181 -265t-270.5 -177t-329 -66q-170 0 -326.5 66t-271 177t-182.5 265t-68 322zM461 799q0 -181 127 -307.5t307 -126.5q184 0 309 126t125 308 t-125 308t-309 126q-180 0 -307 -126.5t-127 -307.5z" />
<glyph unicode="P" horiz-adv-x="1959" d="M123 0v1597h704q154 0 276 -50t197.5 -135.5t114.5 -194.5t39 -232q0 -129 -39 -240.5t-114.5 -197.5t-197.5 -135.5t-276 -49.5h-295v-362h-409zM532 735h273q122 0 178.5 67t56.5 181q0 105 -57 173.5t-178 68.5h-273v-490z" />
<glyph unicode="Q" horiz-adv-x="2263" d="M47 799q0 168 68 322t182.5 264.5t271 176.5t326.5 66q172 0 329 -66t270.5 -177t181 -264.5t67.5 -321.5q0 -224 -112.5 -413t-301.5 -300q63 -44 112 -66t97 -22q92 0 139 72l310 -250q-80 -110 -202.5 -163.5t-244.5 -53.5q-90 0 -177 30t-160.5 77.5t-142 97.5 t-149.5 99.5t-155 74.5q-147 23 -278 97t-226 181t-150 247.5t-55 291.5zM461 799q0 -181 127 -307.5t307 -126.5q184 0 309 126t125 308t-125 308t-309 126q-180 0 -307 -126.5t-127 -307.5z" />
<glyph unicode="R" horiz-adv-x="2039" d="M123 0v1597h780q149 0 265.5 -46t188 -127t108 -185t36.5 -225q0 -175 -80 -317.5t-235 -213.5l346 -483h-490l-303 428h-209v-428h-407zM530 799h351q115 0 170 59.5t55 151.5q0 99 -54 157t-171 58h-351v-426z" />
<glyph unicode="S" horiz-adv-x="1902" d="M59 461v18h400v-10q0 -53 71 -99t199 -46q106 0 154.5 28.5t48.5 69.5q0 49 -60 85.5t-213 88.5q-67 22 -113.5 39t-113 46.5t-112 57.5t-96 70.5t-81.5 88t-51 106t-20 129.5q0 226 173.5 360.5t450.5 134.5q186 0 334 -62t234 -180.5t86 -273.5v-22h-400v14 q0 66 -64.5 118t-180.5 52q-97 0 -146 -32t-49 -77t55 -76.5t209 -84.5q210 -74 316 -136q282 -164 282 -424q0 -152 -83.5 -260.5t-225 -161.5t-326.5 -53q-193 0 -345.5 57t-242.5 169.5t-90 265.5z" />
<glyph unicode="T" horiz-adv-x="1925" d="M25 1200v397h1405v-397h-498v-1200h-410v1200h-497z" />
<glyph unicode="U" horiz-adv-x="2140" d="M100 698v899h410v-874q0 -174 82.5 -266t241.5 -92q161 0 244 92t83 266v874h408v-899q0 -155 -48.5 -287.5t-139.5 -231t-231.5 -154.5t-315.5 -56t-316 56t-231.5 154.5t-138.5 230.5t-48 288z" />
<glyph unicode="V" d="M0 1597h446l402 -1073l403 1073h447l-647 -1597h-406z" />
<glyph unicode="W" horiz-adv-x="2820" d="M-2 1597h436l258 -952l299 952h365l299 -950l258 950h438l-448 -1597h-424l-305 928l-304 -928h-424z" />
<glyph unicode="X" horiz-adv-x="2043" d="M-6 0l549 803l-537 794h483l297 -436l299 436h484l-537 -794l549 -803h-498l-297 438l-294 -438h-498z" />
<glyph unicode="Y" horiz-adv-x="2142" d="M0 1597h481l353 -579l354 579h483l-633 -1011v-586h-407v586z" />
<glyph unicode="Z" horiz-adv-x="1964" d="M63 0v299l744 901h-719v397h1329v-299l-745 -903h747v-395h-1356z" />
<glyph unicode="[" horiz-adv-x="1280" d="M119 -444v2488h620v-385h-213v-1720h213v-383h-620z" />
<glyph unicode="\" horiz-adv-x="2187" d="M43 1962h442l1186 -2327h-438z" />
<glyph unicode="]" horiz-adv-x="1280" d="M70 -61h213v1720h-213v383h620v-2488h-620v385z" />
<glyph unicode="^" horiz-adv-x="1900" d="M74 649l463 948h354l465 -948h-434l-207 465l-209 -465h-432z" />
<glyph unicode="_" horiz-adv-x="1918" d="M98 -45h1252v-352h-1252v352z" />
<glyph unicode="`" horiz-adv-x="1202" d="M0 1948l199 344l532 -379l-137 -238z" />
<glyph unicode="a" d="M0 0l647 1597h406l645 -1597h-447l-88 233h-628l-89 -233h-446zM674 604h350l-174 469z" />
<glyph unicode="b" horiz-adv-x="2031" d="M123 0v1597h795q250 0 384 -121t134 -319q0 -228 -195 -336q126 -47 196 -140.5t70 -229.5q0 -201 -140 -326t-380 -125h-864zM532 371h410q152 0 152 143q0 137 -152 137h-410v-280zM532 971h338q152 0 152 127q0 59 -33 93t-96 34h-361v-254z" />
<glyph unicode="c" horiz-adv-x="2144" d="M47 799q0 168 68 322t182.5 264.5t271 176.5t326.5 66q243 0 445.5 -124.5t310.5 -329.5l-373 -168q-55 103 -157 165t-226 62q-180 0 -307 -126.5t-127 -307.5t127 -307.5t307 -126.5q125 0 226.5 61.5t156.5 165.5l375 -164q-106 -207 -310 -333t-448 -126 q-170 0 -326.5 66t-271 177t-182.5 265t-68 322z" />
<glyph unicode="d" horiz-adv-x="2146" d="M123 0v1597h741q182 0 328 -63.5t238.5 -173.5t141 -253t48.5 -308q0 -132 -30 -250.5t-92.5 -219t-151 -174t-212 -114.5t-270.5 -41h-741zM532 395h302q179 0 275.5 109.5t96.5 294.5q0 184 -96.5 292.5t-275.5 108.5h-302v-805z" />
<glyph unicode="e" horiz-adv-x="1896" d="M123 0v1597h1227v-397h-818v-229h672v-371h-672v-205h818v-395h-1227z" />
<glyph unicode="f" horiz-adv-x="1832" d="M123 0v1597h1186v-397h-779v-282h654v-371h-654v-547h-407z" />
<glyph unicode="g" horiz-adv-x="2174" d="M47 799q0 168 68 321.5t182 264.5t270.5 177t327.5 66q202 0 380 -90t296 -244l-334 -225q-61 77 -150.5 120.5t-191.5 43.5q-181 0 -307.5 -126.5t-126.5 -307.5t126.5 -307.5t307.5 -126.5q105 0 194.5 48.5t147.5 133.5v45h-387v340h770v-932h-322v150 q-57 -87 -166.5 -134t-236.5 -47q-171 0 -327.5 66t-270.5 177t-182 265t-68 322z" />
<glyph unicode="h" horiz-adv-x="2185" d="M123 0v1597h407v-620h652v620h409v-1597h-409v594h-652v-594h-407z" />
<glyph unicode="i" horiz-adv-x="1126" d="M123 0v1597h409v-1597h-409z" />
<glyph unicode="j" horiz-adv-x="1832" d="M33 592v139h409v-133q0 -68 16 -116t46 -72.5t64 -34.5t77 -10q99 0 150 50t51 183v999h407v-1005q0 -156 -48 -277t-132 -195.5t-192.5 -112.5t-235.5 -38q-123 0 -231 38t-194 112t-136.5 196t-50.5 277z" />
<glyph unicode="k" horiz-adv-x="2043" d="M123 0v1597h409v-550l496 550h528l-630 -686l663 -911h-508l-440 602l-109 -121v-481h-409z" />
<glyph unicode="l" horiz-adv-x="1794" d="M123 0v1597h407v-1202h766v-395h-1173z" />
<glyph unicode="m" horiz-adv-x="2463" d="M123 0v1597h412l460 -1009l463 1009h412v-1597h-408v752l-332 -691h-268l-332 691v-752h-407z" />
<glyph unicode="n" horiz-adv-x="2185" d="M123 0v1597h348l713 -892v892h407v-1597h-346l-713 891v-891h-409z" />
<glyph unicode="o" horiz-adv-x="2260" d="M47 799q0 168 68 322t182.5 264.5t271 176.5t326.5 66q172 0 329 -66t270.5 -177t181 -264.5t67.5 -321.5t-67.5 -322t-181 -265t-270.5 -177t-329 -66q-170 0 -326.5 66t-271 177t-182.5 265t-68 322zM461 799q0 -181 127 -307.5t307 -126.5q184 0 309 126t125 308 t-125 308t-309 126q-180 0 -307 -126.5t-127 -307.5z" />
<glyph unicode="p" horiz-adv-x="1959" d="M123 0v1597h704q154 0 276 -50t197.5 -135.5t114.5 -194.5t39 -232q0 -129 -39 -240.5t-114.5 -197.5t-197.5 -135.5t-276 -49.5h-295v-362h-409zM532 735h273q122 0 178.5 67t56.5 181q0 105 -57 173.5t-178 68.5h-273v-490z" />
<glyph unicode="q" horiz-adv-x="2263" d="M47 799q0 168 68 322t182.5 264.5t271 176.5t326.5 66q172 0 329 -66t270.5 -177t181 -264.5t67.5 -321.5q0 -224 -112.5 -413t-301.5 -300q63 -44 112 -66t97 -22q92 0 139 72l310 -250q-80 -110 -202.5 -163.5t-244.5 -53.5q-90 0 -177 30t-160.5 77.5t-142 97.5 t-149.5 99.5t-155 74.5q-147 23 -278 97t-226 181t-150 247.5t-55 291.5zM461 799q0 -181 127 -307.5t307 -126.5q184 0 309 126t125 308t-125 308t-309 126q-180 0 -307 -126.5t-127 -307.5z" />
<glyph unicode="r" horiz-adv-x="2039" d="M123 0v1597h780q149 0 265.5 -46t188 -127t108 -185t36.5 -225q0 -175 -80 -317.5t-235 -213.5l346 -483h-490l-303 428h-209v-428h-407zM530 799h351q115 0 170 59.5t55 151.5q0 99 -54 157t-171 58h-351v-426z" />
<glyph unicode="s" horiz-adv-x="1902" d="M59 461v18h400v-10q0 -53 71 -99t199 -46q106 0 154.5 28.5t48.5 69.5q0 49 -60 85.5t-213 88.5q-67 22 -113.5 39t-113 46.5t-112 57.5t-96 70.5t-81.5 88t-51 106t-20 129.5q0 226 173.5 360.5t450.5 134.5q186 0 334 -62t234 -180.5t86 -273.5v-22h-400v14 q0 66 -64.5 118t-180.5 52q-97 0 -146 -32t-49 -77t55 -76.5t209 -84.5q210 -74 316 -136q282 -164 282 -424q0 -152 -83.5 -260.5t-225 -161.5t-326.5 -53q-193 0 -345.5 57t-242.5 169.5t-90 265.5z" />
<glyph unicode="t" horiz-adv-x="1925" d="M25 1200v397h1405v-397h-498v-1200h-410v1200h-497z" />
<glyph unicode="u" horiz-adv-x="2140" d="M100 698v899h410v-874q0 -174 82.5 -266t241.5 -92q161 0 244 92t83 266v874h408v-899q0 -155 -48.5 -287.5t-139.5 -231t-231.5 -154.5t-315.5 -56t-316 56t-231.5 154.5t-138.5 230.5t-48 288z" />
<glyph unicode="v" d="M0 1597h446l402 -1073l403 1073h447l-647 -1597h-406z" />
<glyph unicode="w" horiz-adv-x="2820" d="M-2 1597h436l258 -952l299 952h365l299 -950l258 950h438l-448 -1597h-424l-305 928l-304 -928h-424z" />
<glyph unicode="x" horiz-adv-x="2043" d="M-6 0l549 803l-537 794h483l297 -436l299 436h484l-537 -794l549 -803h-498l-297 438l-294 -438h-498z" />
<glyph unicode="y" horiz-adv-x="2142" d="M0 1597h481l353 -579l354 579h483l-633 -1011v-586h-407v586z" />
<glyph unicode="z" horiz-adv-x="1964" d="M63 0v299l744 901h-719v397h1329v-299l-745 -903h747v-395h-1356z" />
<glyph unicode="{" horiz-adv-x="1236" d="M80 35q0 78 24 162t52.5 142.5t52.5 117.5t24 92q0 38 -21 61t-65 23h-38v334h38q44 0 65 23t21 61q0 33 -24 92t-52.5 117.5t-52.5 142.5t-24 162q0 98 36.5 185t102 152.5t165.5 103.5t220 38h78v-369h-78q-66 0 -107.5 -35.5t-41.5 -101.5q0 -43 27.5 -107.5 t60.5 -122.5t60.5 -132t27.5 -132q0 -149 -113 -245q113 -93 113 -244q0 -58 -27.5 -132.5t-60.5 -132.5t-60.5 -122.5t-27.5 -106.5q0 -68 41.5 -102.5t107.5 -34.5h78v-368h-78q-120 0 -219.5 37.5t-166 103t-102.5 152.5t-36 186z" />
<glyph unicode="|" horiz-adv-x="1099" d="M117 -379v2357h395v-2357h-395z" />
<glyph unicode="}" horiz-adv-x="1236" d="M84 -76h78q66 0 107.5 35.5t41.5 101.5q0 43 -27.5 107.5t-60.5 122.5t-60.5 132t-27.5 132q0 150 113 246q-113 93 -113 243q0 58 27.5 132.5t60.5 132.5t60.5 122.5t27.5 106.5q0 68 -41.5 102.5t-107.5 34.5h-78v369h78q120 0 219.5 -37.5t166 -103t102.5 -152.5 t36 -186q0 -78 -24 -162t-53 -142.5t-53 -117.5t-24 -92q0 -38 21 -61t65 -23h39v-334h-39q-44 0 -65 -23t-21 -61q0 -33 24 -92t53 -117.5t53 -142.5t24 -162q0 -98 -36.5 -185t-102 -152.5t-165.5 -103.5t-220 -38h-78v368z" />
<glyph unicode="~" horiz-adv-x="1531" d="M115 487q0 28 1.5 55.5t8.5 68.5t18 76t31.5 72t48 63t70 42.5t94.5 16.5q99 0 211 -80q33 -25 49 -25t20.5 14t2.5 52h272q0 -28 -1.5 -55.5t-8.5 -68.5t-18 -75.5t-31.5 -71.5t-48 -63t-70 -42.5t-94.5 -16.5q-101 0 -211 79q-33 25 -49 25t-20.5 -14t-2.5 -52h-272z " />
<glyph unicode="&#xa1;" horiz-adv-x="1132" d="M74 1374q0 106 76 182t182 76t182 -76t76 -182t-76 -182t-182 -76t-182 76t-76 182zM102 0l93 1016h272l92 -1016h-457z" />
<glyph unicode="&#xa2;" horiz-adv-x="1722" d="M78 684q0 181 108 326t281 204v205h383v-207q103 -35 186 -106t135 -166l-358 -160q-51 68 -139 68q-70 0 -119 -48.5t-49 -117.5t48.5 -116.5t119.5 -47.5q42 0 79.5 18.5t61.5 49.5l359 -158q-51 -95 -135 -166t-189 -108v-205h-383v205q-172 58 -280.5 203t-108.5 327 z" />
<glyph unicode="&#xa3;" horiz-adv-x="1726" d="M90 0v291q102 47 140.5 102t41.5 129h-176v352h103q-41 125 -41 240q0 97 27 180.5t75 144t113 103.5t141.5 64.5t159.5 21.5q75 0 145.5 -17.5t135 -56t112 -94t76 -136.5t28.5 -179v-37h-397v12q0 63 -32.5 87t-73.5 24q-51 0 -83 -27.5t-32 -81.5q0 -30 8.5 -63.5 t31.5 -97.5t30 -87h331v-352h-286q-8 -69 -21 -114h502v-408h-1059z" />
<glyph unicode="&#xa5;" horiz-adv-x="2256" d="M57 1597h484l352 -579l354 579h482l-410 -657h135v-309h-328l-28 -47v-19h356v-309h-356v-256h-410v256h-356v309h356v23l-26 43h-330v309h135z" />
<glyph unicode="&#xa6;" horiz-adv-x="1099" d="M117 -379v1036h395v-1036h-395zM117 942v1036h395v-1036h-395z" />
<glyph unicode="&#xa7;" horiz-adv-x="1652" d="M78 831q0 166 149 254q-75 90 -75 207q0 108 61 186t156 114t211 36q90 0 171.5 -23.5t147.5 -69t106 -119t44 -165.5v-32h-381v18q0 76 -76 76q-30 0 -42.5 -13t-12.5 -28q0 -20 13.5 -35.5t42 -29.5t58 -25.5t76 -30t82.5 -35.5q293 -138 293 -354q0 -164 -150 -254 q76 -92 76 -207q0 -158 -124.5 -245t-309.5 -87q-88 0 -165.5 21t-142.5 64.5t-105.5 117.5t-47.5 172l-2 31h381v-17q0 -8 0.5 -13t4 -18t11 -21.5t23 -15.5t37.5 -7q30 0 42.5 14.5t12.5 30.5t-10 28.5t-35.5 25.5t-52 24t-78.5 32t-96 41q-56 27 -100.5 55.5t-92 71.5 t-74 100.5t-26.5 124.5zM473 827q0 -20 9.5 -36t29.5 -28t36 -19t45.5 -17.5t41.5 -15.5l24 -11q5 2 13 6t21.5 21.5t13.5 40.5q0 20 -9.5 36t-30 28.5t-36 19.5t-45.5 18t-41 15l-25 10q-5 -2 -13 -6t-21 -21.5t-13 -40.5z" />
<glyph unicode="&#xa8;" horiz-adv-x="1382" d="M0 1901q0 80 58 138t141 58q81 0 138.5 -58t57.5 -138q0 -83 -57 -142t-139 -59q-83 0 -141 59t-58 142zM516 1901q0 80 58 138t141 58q81 0 138.5 -58t57.5 -138q0 -83 -57 -142t-139 -59q-83 0 -141 59t-58 142z" />
<glyph unicode="&#xa9;" horiz-adv-x="2289" d="M80 799q0 167 66 320t177 264.5t264.5 178t321.5 66.5q167 0 320.5 -66.5t265 -177.5t178 -264.5t66.5 -320.5q0 -168 -66.5 -322t-178 -265t-265 -177t-320.5 -66q-168 0 -321.5 66t-264.5 177t-177 265t-66 322zM381 799q0 -144 70.5 -266t192 -192.5t265.5 -70.5 t267 71.5t194.5 193.5t71.5 264q0 144 -71.5 266t-194.5 193t-267 71t-265.5 -71t-192 -193t-70.5 -266zM500 797q0 173 120 293t293 120q116 0 214.5 -61.5t152.5 -161.5l-281 -131q-29 47 -86 47q-44 0 -76 -31t-32 -75t32 -75.5t76 -31.5q55 0 88 45l281 -129 q-53 -101 -152 -162t-217 -61q-173 0 -293 120.5t-120 293.5z" />
<glyph unicode="&#xaa;" horiz-adv-x="1550" d="M57 1184q0 186 122.5 315t299.5 129q111 0 187 -45v25h290v-844h-290v22q-73 -43 -187 -43q-177 0 -299.5 128t-122.5 313zM350 1184q0 -65 43.5 -109.5t110.5 -44.5q68 0 113 44.5t45 109.5q0 67 -45 112t-113 45q-67 0 -110.5 -45t-43.5 -112z" />
<glyph unicode="&#xab;" horiz-adv-x="1904" d="M98 590v317l580 514v-483l-213 -188l213 -191v-481zM719 590v317l579 514v-483l-213 -188l213 -191v-481z" />
<glyph unicode="&#xad;" horiz-adv-x="1325" d="M117 475v383h620v-383h-620z" />
<glyph unicode="&#xae;" horiz-adv-x="1622" d="M78 1130q0 135 66.5 249.5t181 181.5t249.5 67t249.5 -67t181.5 -181.5t67 -249.5t-67 -249.5t-181.5 -181t-249.5 -66.5q-101 0 -193 39.5t-158.5 106t-106 158.5t-39.5 193zM207 1130q0 -154 107 -261t261 -107t261.5 107t107.5 261t-107.5 261.5t-261.5 107.5 t-261 -107.5t-107 -261.5zM397 901v481h207q83 0 130.5 -49.5t47.5 -120.5q0 -48 -21.5 -88t-62.5 -63l95 -160h-123l-78 137h-82v-137h-113zM510 1147h88q32 0 51 20t19 45q0 26 -19 44t-51 18h-88v-127z" />
<glyph unicode="&#xaf;" horiz-adv-x="1204" d="M0 1700v303h733v-303h-733z" />
<glyph unicode="&#xb0;" horiz-adv-x="1380" d="M57 1229q0 166 116 282.5t280 116.5q166 0 282.5 -116.5t116.5 -282.5q0 -164 -116.5 -279.5t-282.5 -115.5q-164 0 -280 115.5t-116 279.5zM328 1229q0 -53 36 -89t89 -36q54 0 91.5 36.5t37.5 88.5q0 54 -37.5 91.5t-91.5 37.5q-52 0 -88.5 -37.5t-36.5 -91.5z" />
<glyph unicode="&#xb1;" horiz-adv-x="1630" d="M102 754v370h291v287h373v-287h291v-370h-291v-289h-373v289h-291zM104 33v370h953v-370h-953z" />
<glyph unicode="&#xb2;" horiz-adv-x="1368" d="M45 559v211l383 336q75 67 101 97t26 63q0 35 -26 56t-74 21q-54 0 -86.5 -27.5t-32.5 -76.5v-33h-277v33q0 75 23.5 138.5t63 107t91.5 74t108 45t114 14.5q159 0 270 -96t111 -256q0 -50 -16 -98.5t-35 -81.5t-56.5 -74t-57 -58.5t-59.5 -52.5l-69 -59h287v-283h-789z " />
<glyph unicode="&#xb3;" horiz-adv-x="1339" d="M23 643l153 231q129 -63 225 -63q64 0 99 19.5t35 54.5q0 84 -261 84v229q70 0 119.5 8.5t74 22.5t34.5 28.5t10 30.5q0 26 -26 48t-70 22q-101 0 -101 -70v-4h-268v29q0 72 32 131t84.5 96.5t118 57.5t134.5 20q98 0 183 -35t139.5 -103t54.5 -155q0 -146 -125 -233 q76 -39 116.5 -98.5t40.5 -133.5q0 -146 -120 -233.5t-295 -87.5q-203 0 -387 104z" />
<glyph unicode="&#xb4;" horiz-adv-x="1202" d="M0 1913l532 379l199 -344l-594 -273z" />
<glyph unicode="&#xb6;" horiz-adv-x="2189" d="M76 1034q0 113 44.5 217t119 180t179 121t218.5 45h950v-1597h-395v1225h-82v-1225h-395v469h-78q-153 0 -282 76t-204 206t-75 283zM471 1034q0 -84 46.5 -138t119.5 -54h78v383h-78q-74 0 -120 -53t-46 -138z" />
<glyph unicode="&#xb7;" horiz-adv-x="1126" d="M86 748q0 106 76 182t182 76t182 -76t76 -182t-76 -182.5t-182 -76.5t-182 76.5t-76 182.5z" />
<glyph unicode="&#xb8;" horiz-adv-x="1132" d="M31 -528l106 245q100 -51 168 -51q43 0 59.5 15t16.5 32q0 13 -6 24.5t-24.5 21t-53.5 -4.5l-98 88l71 183h189l-23 -119q86 -26 126 -91t40 -145q0 -114 -73.5 -189t-206.5 -75q-61 0 -133.5 16.5t-114.5 33.5z" />
<glyph unicode="&#xb9;" horiz-adv-x="1013" d="M37 1223v297l237 77h191v-1038h-283v713z" />
<glyph unicode="&#xba;" horiz-adv-x="1476" d="M55 1184q0 186 129.5 315t315.5 129q189 0 319.5 -129t130.5 -315q0 -185 -130.5 -313t-319.5 -128q-186 0 -315.5 128.5t-129.5 312.5zM346 1184q0 -65 44 -109.5t110 -44.5q68 0 113.5 44.5t45.5 109.5q0 66 -45.5 111.5t-113.5 45.5q-66 0 -110 -45.5t-44 -111.5z" />
<glyph unicode="&#xbb;" horiz-adv-x="1904" d="M135 78v483l213 189l-213 190v481l580 -512v-317zM756 78v483l213 189l-213 190v481l579 -512v-317z" />
<glyph unicode="&#xbc;" horiz-adv-x="2461" d="M90 1223v297l238 77h190v-1038h-282v713zM289 0l946 1597h309l-946 -1597h-309zM1049 174v219l381 645h313l-352 -598h149v187h275v-187h104v-266h-104v-174h-275v174h-491z" />
<glyph unicode="&#xbd;" horiz-adv-x="2543" d="M80 1223v297l237 77h191v-1038h-283v713zM279 0l946 1597h309l-946 -1597h-309zM1196 0v211l383 336q75 67 101 97t26 63q0 35 -26 56t-74 21q-54 0 -86.5 -27.5t-32.5 -76.5v-33h-277v33q0 75 23.5 138.5t63 107t91.5 74t108 45t114 14.5q159 0 270 -96t111 -256 q0 -50 -16 -98.5t-35 -81.5t-56.5 -74t-57 -58.5t-59.5 -52.5l-69 -59h287v-283h-789z" />
<glyph unicode="&#xbe;" horiz-adv-x="2699" d="M76 643l153 231q129 -63 226 -63q64 0 98.5 19.5t34.5 54.5q0 84 -260 84v229q70 0 119.5 8.5t73.5 22.5t34 28.5t10 30.5q0 26 -26 48t-70 22q-100 0 -100 -70v-4h-269v29q0 72 32 131t84.5 96.5t118 57.5t134.5 20q98 0 183 -35t139.5 -103t54.5 -155q0 -146 -125 -233 q158 -81 158 -232q0 -146 -120.5 -233.5t-295.5 -87.5q-203 0 -387 104zM526 0l947 1597h309l-946 -1597h-310zM1286 174v219l381 645h313l-352 -598h150v187h274v-187h105v-266h-105v-174h-274v174h-492z" />
<glyph unicode="&#xbf;" horiz-adv-x="1681" d="M82 440q0 74 20.5 138.5t57 112t71.5 80t80 63.5q12 9 47.5 33t50 35.5t36 33t30 43t8.5 47.5v4h351v-65q0 -57 -16 -109t-37 -87.5t-58 -73.5t-62 -58t-67 -51q-51 -38 -74.5 -67.5t-23.5 -69.5q0 -37 26 -67t78 -30q58 0 97.5 40t39.5 122v18h400v-67q0 -97 -33 -179.5 t-88 -140t-127 -98t-149.5 -59.5t-155.5 -19q-133 0 -246.5 56t-184.5 165t-71 250zM397 1374q0 106 76 182t182 76t182 -76t76 -182t-76 -182t-182 -76t-182 76t-76 182z" />
<glyph unicode="&#xc0;" d="M0 0l647 1597h406l645 -1597h-447l-88 233h-628l-89 -233h-446zM485 1948l199 344l533 -379l-138 -238zM674 604h350l-174 469z" />
<glyph unicode="&#xc1;" d="M0 0l647 1597h406l645 -1597h-447l-88 233h-628l-89 -233h-446zM485 1913l533 379l199 -344l-594 -273zM674 604h350l-174 469z" />
<glyph unicode="&#xc2;" d="M0 0l647 1597h406l645 -1597h-447l-88 233h-628l-89 -233h-446zM383 1909l467 366l465 -366l-176 -219l-289 190l-293 -190zM674 604h350l-174 469z" />
<glyph unicode="&#xc3;" d="M0 0l647 1597h406l645 -1597h-447l-88 233h-628l-89 -233h-446zM436 1739q0 28 1.5 55.5t8.5 68.5t18 76t32 71.5t48.5 62.5t70 42.5t94.5 16.5q99 0 211 -80q32 -24 49 -24q16 0 20 13.5t2 51.5h273q0 -28 -1.5 -55.5t-8.5 -68.5t-18 -76t-32 -71.5t-48.5 -62.5 t-70 -42.5t-94.5 -16.5q-99 0 -211 80q-32 24 -49 24q-16 0 -20 -13.5t-2 -51.5h-273zM674 604h350l-174 469z" />
<glyph unicode="&#xc4;" d="M0 0l647 1597h406l645 -1597h-447l-88 233h-628l-89 -233h-446zM395 1901q0 80 58 138t141 58q81 0 139 -58t58 -138q0 -83 -57.5 -142t-139.5 -59q-83 0 -141 59t-58 142zM674 604h350l-174 469zM911 1901q0 80 58 138t141 58q81 0 139 -58t58 -138q0 -83 -57.5 -142 t-139.5 -59q-83 0 -141 59t-58 142z" />
<glyph unicode="&#xc5;" d="M0 0l645 1595q-62 46 -97.5 117.5t-35.5 153.5q0 141 99.5 241.5t238.5 100.5q140 0 241 -101t101 -241q0 -82 -37.5 -153t-101.5 -118l645 -1595h-447l-88 233h-628l-89 -233h-446zM674 604h350l-174 469zM752 1866q0 -41 28.5 -70t69.5 -29t69.5 29t28.5 70t-28.5 69.5 t-69.5 28.5t-69.5 -28.5t-28.5 -69.5z" />
<glyph unicode="&#xc6;" horiz-adv-x="3094" d="M-20 0l1284 1597h1284v-397h-819v-229h673v-371h-673v-205h819v-395h-1227v233h-631l-184 -233h-526zM981 604h340v430z" />
<glyph unicode="&#xc7;" horiz-adv-x="2144" d="M47 799q0 168 68 322t182.5 264.5t271 176.5t326.5 66q243 0 445.5 -124.5t310.5 -329.5l-373 -168q-55 103 -157 165t-226 62q-180 0 -307 -126.5t-127 -307.5t127 -307.5t307 -126.5q125 0 226.5 61.5t156.5 165.5l375 -164q-99 -194 -285 -317t-412 -140l-18 -96 q86 -26 126 -90.5t40 -144.5q0 -114 -74 -189.5t-207 -75.5q-61 0 -133.5 16.5t-115.5 32.5l-42 17l107 246q102 -52 168 -52q43 0 59.5 15t16.5 33q0 13 -6 24.5t-24.5 21t-53.5 -4.5l-99 88l66 168q-200 30 -364 145.5t-259.5 293t-95.5 380.5z" />
<glyph unicode="&#xc8;" horiz-adv-x="1896" d="M123 0v1597h1227v-397h-818v-229h672v-371h-672v-205h818v-395h-1227zM371 1948l198 344l533 -379l-137 -238z" />
<glyph unicode="&#xc9;" horiz-adv-x="1896" d="M123 0v1597h1227v-397h-818v-229h672v-371h-672v-205h818v-395h-1227zM371 1913l532 379l199 -344l-594 -273z" />
<glyph unicode="&#xca;" horiz-adv-x="1896" d="M123 0v1597h1227v-397h-818v-229h672v-371h-672v-205h818v-395h-1227zM268 1909l467 366l465 -366l-176 -219l-289 190l-293 -190z" />
<glyph unicode="&#xcb;" horiz-adv-x="1896" d="M123 0v1597h1227v-397h-818v-229h672v-371h-672v-205h818v-395h-1227zM281 1901q0 80 57.5 138t140.5 58q81 0 139 -58t58 -138q0 -83 -57.5 -142t-139.5 -59q-83 0 -140.5 58.5t-57.5 142.5zM797 1901q0 80 57.5 138t140.5 58q81 0 139 -58t58 -138q0 -83 -57.5 -142 t-139.5 -59q-83 0 -140.5 58.5t-57.5 142.5z" />
<glyph unicode="&#xcc;" horiz-adv-x="1126" d="M-39 1948l199 344l532 -379l-137 -238zM123 0v1597h409v-1597h-409z" />
<glyph unicode="&#xcd;" horiz-adv-x="1126" d="M-39 1913l533 379l198 -344l-594 -273zM123 0v1597h409v-1597h-409z" />
<glyph unicode="&#xce;" horiz-adv-x="1126" d="M-141 1909l467 366l465 -366l-177 -219l-288 190l-293 -190zM123 0v1597h409v-1597h-409z" />
<glyph unicode="&#xcf;" horiz-adv-x="1126" d="M-129 1901q0 80 58 138t141 58q81 0 138.5 -58t57.5 -138q0 -83 -57 -142t-139 -59q-83 0 -141 59t-58 142zM123 0v1597h409v-1597h-409zM387 1901q0 80 58 138t141 58q81 0 138.5 -58t57.5 -138q0 -83 -57 -142t-139 -59q-83 0 -141 59t-58 142z" />
<glyph unicode="&#xd0;" horiz-adv-x="2156" d="M16 608v353h117v636h741q182 0 328 -63.5t238.5 -173.5t141 -253t48.5 -308q0 -132 -30 -250.5t-92.5 -219t-151 -174t-212 -114.5t-270.5 -41h-741v608h-117zM543 395h301q179 0 276 109.5t97 294.5q0 184 -97 292.5t-276 108.5h-301v-239h338v-353h-338v-213z" />
<glyph unicode="&#xd1;" horiz-adv-x="2185" d="M123 0v1597h348l713 -892v892h407v-1597h-346l-713 891v-891h-409zM444 1739q0 28 1.5 55.5t8.5 68.5t18 76t32 71.5t48.5 62.5t70 42.5t94.5 16.5q99 0 211 -80q32 -24 49 -24q16 0 20 13.5t2 51.5h273q0 -28 -1.5 -55.5t-8.5 -68.5t-18 -76t-32 -71.5t-48.5 -62.5 t-70 -42.5t-94.5 -16.5q-99 0 -211 80q-32 24 -49 24q-16 0 -20 -13.5t-2 -51.5h-273z" />
<glyph unicode="&#xd2;" horiz-adv-x="2260" d="M47 799q0 168 68 322t182.5 264.5t271 176.5t326.5 66q172 0 329 -66t270.5 -177t181 -264.5t67.5 -321.5t-67.5 -322t-181 -265t-270.5 -177t-329 -66q-170 0 -326.5 66t-271 177t-182.5 265t-68 322zM461 799q0 -181 127 -307.5t307 -126.5q184 0 309 126t125 308 t-125 308t-309 126q-180 0 -307 -126.5t-127 -307.5zM530 1948l199 344l533 -379l-138 -238z" />
<glyph unicode="&#xd3;" horiz-adv-x="2260" d="M47 799q0 168 68 322t182.5 264.5t271 176.5t326.5 66q172 0 329 -66t270.5 -177t181 -264.5t67.5 -321.5t-67.5 -322t-181 -265t-270.5 -177t-329 -66q-170 0 -326.5 66t-271 177t-182.5 265t-68 322zM461 799q0 -181 127 -307.5t307 -126.5q184 0 309 126t125 308 t-125 308t-309 126q-180 0 -307 -126.5t-127 -307.5zM532 1913l533 379l199 -344l-594 -273z" />
<glyph unicode="&#xd4;" horiz-adv-x="2260" d="M47 799q0 168 68 322t182.5 264.5t271 176.5t326.5 66q172 0 329 -66t270.5 -177t181 -264.5t67.5 -321.5t-67.5 -322t-181 -265t-270.5 -177t-329 -66q-170 0 -326.5 66t-271 177t-182.5 265t-68 322zM428 1909l467 366l465 -366l-176 -219l-289 190l-293 -190zM461 799 q0 -181 127 -307.5t307 -126.5q184 0 309 126t125 308t-125 308t-309 126q-180 0 -307 -126.5t-127 -307.5z" />
<glyph unicode="&#xd5;" horiz-adv-x="2260" d="M47 799q0 168 68 322t182.5 264.5t271 176.5t326.5 66q172 0 329 -66t270.5 -177t181 -264.5t67.5 -321.5t-67.5 -322t-181 -265t-270.5 -177t-329 -66q-170 0 -326.5 66t-271 177t-182.5 265t-68 322zM461 799q0 -181 127 -307.5t307 -126.5q184 0 309 126t125 308 t-125 308t-309 126q-180 0 -307 -126.5t-127 -307.5zM483 1739q0 28 1.5 55.5t8.5 68.5t18 76t32 71.5t48.5 62.5t70 42.5t94.5 16.5q99 0 211 -80q32 -24 49 -24q16 0 20 13.5t2 51.5h273q0 -28 -1.5 -55.5t-8.5 -68.5t-18 -76t-32 -71.5t-48.5 -62.5t-70 -42.5 t-94.5 -16.5q-99 0 -211 80q-32 24 -49 24q-16 0 -20 -13.5t-2 -51.5h-273z" />
<glyph unicode="&#xd6;" horiz-adv-x="2260" d="M47 799q0 168 68 322t182.5 264.5t271 176.5t326.5 66q172 0 329 -66t270.5 -177t181 -264.5t67.5 -321.5t-67.5 -322t-181 -265t-270.5 -177t-329 -66q-170 0 -326.5 66t-271 177t-182.5 265t-68 322zM440 1901q0 80 58 138t141 58q81 0 139 -58t58 -138 q0 -83 -57.5 -142t-139.5 -59q-83 0 -141 59t-58 142zM461 799q0 -181 127 -307.5t307 -126.5q184 0 309 126t125 308t-125 308t-309 126q-180 0 -307 -126.5t-127 -307.5zM956 1901q0 80 58 138t141 58q81 0 139 -58t58 -138q0 -83 -57.5 -142t-139.5 -59q-83 0 -141 59 t-58 142z" />
<glyph unicode="&#xd7;" horiz-adv-x="1681" d="M82 492l260 260l-260 260l264 262l258 -260l260 260l264 -262l-260 -260l260 -260l-264 -263l-260 258l-258 -258z" />
<glyph unicode="&#xd8;" horiz-adv-x="2258" d="M47 799q0 168 68 321.5t182 264.5t270.5 177t327.5 66q216 0 410 -104l59 73h346l-192 -239q106 -113 165.5 -257t59.5 -302q0 -168 -67.5 -322t-181.5 -265t-271 -177t-328 -66q-217 0 -410 105l-59 -74h-346l190 238q-106 112 -164.5 257t-58.5 304zM461 799 q0 -134 69 -238l519 643q-79 29 -154 29q-181 0 -307.5 -126.5t-126.5 -307.5zM739 391q71 -26 156 -26q183 0 308.5 126t125.5 308q0 128 -69 237z" />
<glyph unicode="&#xd9;" horiz-adv-x="2140" d="M100 698v899h410v-874q0 -174 82.5 -266t241.5 -92q161 0 244 92t83 266v874h408v-899q0 -155 -48.5 -287.5t-139.5 -231t-231.5 -154.5t-315.5 -56t-316 56t-231.5 154.5t-138.5 230.5t-48 288zM469 1948l199 344l532 -379l-137 -238z" />
<glyph unicode="&#xda;" horiz-adv-x="2140" d="M100 698v899h410v-874q0 -174 82.5 -266t241.5 -92q161 0 244 92t83 266v874h408v-899q0 -155 -48.5 -287.5t-139.5 -231t-231.5 -154.5t-315.5 -56t-316 56t-231.5 154.5t-138.5 230.5t-48 288zM469 1913l532 379l199 -344l-594 -273z" />
<glyph unicode="&#xdb;" horiz-adv-x="2140" d="M100 698v899h410v-874q0 -174 82.5 -266t241.5 -92q161 0 244 92t83 266v874h408v-899q0 -155 -48.5 -287.5t-139.5 -231t-231.5 -154.5t-315.5 -56t-316 56t-231.5 154.5t-138.5 230.5t-48 288zM367 1909l467 366l464 -366l-176 -219l-288 190l-293 -190z" />
<glyph unicode="&#xdc;" horiz-adv-x="2140" d="M100 698v899h410v-874q0 -174 82.5 -266t241.5 -92q161 0 244 92t83 266v874h408v-899q0 -155 -48.5 -287.5t-139.5 -231t-231.5 -154.5t-315.5 -56t-316 56t-231.5 154.5t-138.5 230.5t-48 288zM379 1901q0 80 58 138t141 58q81 0 138.5 -58t57.5 -138q0 -83 -57 -142 t-139 -59q-83 0 -141 59t-58 142zM895 1901q0 80 58 138t141 58q81 0 138.5 -58t57.5 -138q0 -83 -57 -142t-139 -59q-83 0 -141 59t-58 142z" />
<glyph unicode="&#xdd;" horiz-adv-x="2142" d="M0 1597h481l353 -579l354 579h483l-633 -1011v-586h-407v586zM469 1913l532 379l199 -344l-594 -273z" />
<glyph unicode="&#xde;" horiz-adv-x="1978" d="M123 0v1597h409v-184h295q154 0 276 -50t197.5 -135.5t114.5 -194.5t39 -232q0 -129 -39 -240.5t-114.5 -197.5t-197.5 -135.5t-276 -49.5h-295v-178h-409zM532 551h273q122 0 178.5 67t56.5 181q0 105 -57 173t-178 68h-273v-489z" />
<glyph unicode="&#xdf;" horiz-adv-x="2281" d="M104 0v979q0 104 28.5 200.5t88.5 181.5t145.5 148.5t209 100.5t270.5 37q161 0 386.5 -41t418.5 -105v-291l-320 -247q56 -9 113 -30.5t115 -61t102.5 -90.5t73 -124.5t28.5 -158.5q0 -145 -74 -266t-207 -192t-298 -71q-178 0 -340 74.5t-264 216.5l327 207 q51 -68 122 -99.5t138 -31.5q91 0 146 45.5t55 112.5q0 104 -115 147.5t-299 -2.5l-202 279l407 317q-124 39 -317 39q-171 0 -262 -91t-91 -235v-948h-385z" />
<glyph unicode="&#xe0;" d="M0 0l647 1597h406l645 -1597h-447l-88 233h-628l-89 -233h-446zM485 1948l199 344l533 -379l-138 -238zM674 604h350l-174 469z" />
<glyph unicode="&#xe1;" d="M0 0l647 1597h406l645 -1597h-447l-88 233h-628l-89 -233h-446zM485 1913l533 379l199 -344l-594 -273zM674 604h350l-174 469z" />
<glyph unicode="&#xe2;" d="M0 0l647 1597h406l645 -1597h-447l-88 233h-628l-89 -233h-446zM383 1909l467 366l465 -366l-176 -219l-289 190l-293 -190zM674 604h350l-174 469z" />
<glyph unicode="&#xe3;" d="M0 0l647 1597h406l645 -1597h-447l-88 233h-628l-89 -233h-446zM436 1739q0 28 1.5 55.5t8.5 68.5t18 76t32 71.5t48.5 62.5t70 42.5t94.5 16.5q99 0 211 -80q32 -24 49 -24q16 0 20 13.5t2 51.5h273q0 -28 -1.5 -55.5t-8.5 -68.5t-18 -76t-32 -71.5t-48.5 -62.5 t-70 -42.5t-94.5 -16.5q-99 0 -211 80q-32 24 -49 24q-16 0 -20 -13.5t-2 -51.5h-273zM674 604h350l-174 469z" />
<glyph unicode="&#xe4;" d="M0 0l647 1597h406l645 -1597h-447l-88 233h-628l-89 -233h-446zM395 1901q0 80 58 138t141 58q81 0 139 -58t58 -138q0 -83 -57.5 -142t-139.5 -59q-83 0 -141 59t-58 142zM674 604h350l-174 469zM911 1901q0 80 58 138t141 58q81 0 139 -58t58 -138q0 -83 -57.5 -142 t-139.5 -59q-83 0 -141 59t-58 142z" />
<glyph unicode="&#xe5;" d="M0 0l645 1595q-62 46 -97.5 117.5t-35.5 153.5q0 141 99.5 241.5t238.5 100.5q140 0 241 -101t101 -241q0 -82 -37.5 -153t-101.5 -118l645 -1595h-447l-88 233h-628l-89 -233h-446zM674 604h350l-174 469zM752 1866q0 -41 28.5 -70t69.5 -29t69.5 29t28.5 70t-28.5 69.5 t-69.5 28.5t-69.5 -28.5t-28.5 -69.5z" />
<glyph unicode="&#xe6;" horiz-adv-x="3094" d="M-20 0l1284 1597h1284v-397h-819v-229h673v-371h-673v-205h819v-395h-1227v233h-631l-184 -233h-526zM981 604h340v430z" />
<glyph unicode="&#xe7;" horiz-adv-x="2144" d="M47 799q0 168 68 322t182.5 264.5t271 176.5t326.5 66q243 0 445.5 -124.5t310.5 -329.5l-373 -168q-55 103 -157 165t-226 62q-180 0 -307 -126.5t-127 -307.5t127 -307.5t307 -126.5q125 0 226.5 61.5t156.5 165.5l375 -164q-99 -194 -285 -317t-412 -140l-18 -96 q86 -26 126 -90.5t40 -144.5q0 -114 -74 -189.5t-207 -75.5q-61 0 -133.5 16.5t-115.5 32.5l-42 17l107 246q102 -52 168 -52q43 0 59.5 15t16.5 33q0 13 -6 24.5t-24.5 21t-53.5 -4.5l-99 88l66 168q-200 30 -364 145.5t-259.5 293t-95.5 380.5z" />
<glyph unicode="&#xe8;" horiz-adv-x="1896" d="M123 0v1597h1227v-397h-818v-229h672v-371h-672v-205h818v-395h-1227zM371 1948l198 344l533 -379l-137 -238z" />
<glyph unicode="&#xe9;" horiz-adv-x="1896" d="M123 0v1597h1227v-397h-818v-229h672v-371h-672v-205h818v-395h-1227zM371 1913l532 379l199 -344l-594 -273z" />
<glyph unicode="&#xea;" horiz-adv-x="1896" d="M123 0v1597h1227v-397h-818v-229h672v-371h-672v-205h818v-395h-1227zM268 1909l467 366l465 -366l-176 -219l-289 190l-293 -190z" />
<glyph unicode="&#xeb;" horiz-adv-x="1896" d="M123 0v1597h1227v-397h-818v-229h672v-371h-672v-205h818v-395h-1227zM281 1901q0 80 57.5 138t140.5 58q81 0 139 -58t58 -138q0 -83 -57.5 -142t-139.5 -59q-83 0 -140.5 58.5t-57.5 142.5zM797 1901q0 80 57.5 138t140.5 58q81 0 139 -58t58 -138q0 -83 -57.5 -142 t-139.5 -59q-83 0 -140.5 58.5t-57.5 142.5z" />
<glyph unicode="&#xec;" horiz-adv-x="1126" d="M-39 1948l199 344l532 -379l-137 -238zM123 0v1597h409v-1597h-409z" />
<glyph unicode="&#xed;" horiz-adv-x="1126" d="M-39 1913l533 379l198 -344l-594 -273zM123 0v1597h409v-1597h-409z" />
<glyph unicode="&#xee;" horiz-adv-x="1126" d="M-141 1909l467 366l465 -366l-177 -219l-288 190l-293 -190zM123 0v1597h409v-1597h-409z" />
<glyph unicode="&#xef;" horiz-adv-x="1126" d="M-129 1901q0 80 58 138t141 58q81 0 138.5 -58t57.5 -138q0 -83 -57 -142t-139 -59q-83 0 -141 59t-58 142zM123 0v1597h409v-1597h-409zM387 1901q0 80 58 138t141 58q81 0 138.5 -58t57.5 -138q0 -83 -57 -142t-139 -59q-83 0 -141 59t-58 142z" />
<glyph unicode="&#xf0;" horiz-adv-x="2156" d="M16 608v353h117v636h741q182 0 328 -63.5t238.5 -173.5t141 -253t48.5 -308q0 -132 -30 -250.5t-92.5 -219t-151 -174t-212 -114.5t-270.5 -41h-741v608h-117zM543 395h301q179 0 276 109.5t97 294.5q0 184 -97 292.5t-276 108.5h-301v-239h338v-353h-338v-213z" />
<glyph unicode="&#xf1;" horiz-adv-x="2185" d="M123 0v1597h348l713 -892v892h407v-1597h-346l-713 891v-891h-409zM444 1739q0 28 1.5 55.5t8.5 68.5t18 76t32 71.5t48.5 62.5t70 42.5t94.5 16.5q99 0 211 -80q32 -24 49 -24q16 0 20 13.5t2 51.5h273q0 -28 -1.5 -55.5t-8.5 -68.5t-18 -76t-32 -71.5t-48.5 -62.5 t-70 -42.5t-94.5 -16.5q-99 0 -211 80q-32 24 -49 24q-16 0 -20 -13.5t-2 -51.5h-273z" />
<glyph unicode="&#xf2;" horiz-adv-x="2260" d="M47 799q0 168 68 322t182.5 264.5t271 176.5t326.5 66q172 0 329 -66t270.5 -177t181 -264.5t67.5 -321.5t-67.5 -322t-181 -265t-270.5 -177t-329 -66q-170 0 -326.5 66t-271 177t-182.5 265t-68 322zM461 799q0 -181 127 -307.5t307 -126.5q184 0 309 126t125 308 t-125 308t-309 126q-180 0 -307 -126.5t-127 -307.5zM530 1948l199 344l533 -379l-138 -238z" />
<glyph unicode="&#xf3;" horiz-adv-x="2260" d="M47 799q0 168 68 322t182.5 264.5t271 176.5t326.5 66q172 0 329 -66t270.5 -177t181 -264.5t67.5 -321.5t-67.5 -322t-181 -265t-270.5 -177t-329 -66q-170 0 -326.5 66t-271 177t-182.5 265t-68 322zM461 799q0 -181 127 -307.5t307 -126.5q184 0 309 126t125 308 t-125 308t-309 126q-180 0 -307 -126.5t-127 -307.5zM532 1913l533 379l199 -344l-594 -273z" />
<glyph unicode="&#xf4;" horiz-adv-x="2260" d="M47 799q0 168 68 322t182.5 264.5t271 176.5t326.5 66q172 0 329 -66t270.5 -177t181 -264.5t67.5 -321.5t-67.5 -322t-181 -265t-270.5 -177t-329 -66q-170 0 -326.5 66t-271 177t-182.5 265t-68 322zM428 1909l467 366l465 -366l-176 -219l-289 190l-293 -190zM461 799 q0 -181 127 -307.5t307 -126.5q184 0 309 126t125 308t-125 308t-309 126q-180 0 -307 -126.5t-127 -307.5z" />
<glyph unicode="&#xf5;" horiz-adv-x="2260" d="M47 799q0 168 68 322t182.5 264.5t271 176.5t326.5 66q172 0 329 -66t270.5 -177t181 -264.5t67.5 -321.5t-67.5 -322t-181 -265t-270.5 -177t-329 -66q-170 0 -326.5 66t-271 177t-182.5 265t-68 322zM461 799q0 -181 127 -307.5t307 -126.5q184 0 309 126t125 308 t-125 308t-309 126q-180 0 -307 -126.5t-127 -307.5zM483 1739q0 28 1.5 55.5t8.5 68.5t18 76t32 71.5t48.5 62.5t70 42.5t94.5 16.5q99 0 211 -80q32 -24 49 -24q16 0 20 13.5t2 51.5h273q0 -28 -1.5 -55.5t-8.5 -68.5t-18 -76t-32 -71.5t-48.5 -62.5t-70 -42.5 t-94.5 -16.5q-99 0 -211 80q-32 24 -49 24q-16 0 -20 -13.5t-2 -51.5h-273z" />
<glyph unicode="&#xf6;" horiz-adv-x="2260" d="M47 799q0 168 68 322t182.5 264.5t271 176.5t326.5 66q172 0 329 -66t270.5 -177t181 -264.5t67.5 -321.5t-67.5 -322t-181 -265t-270.5 -177t-329 -66q-170 0 -326.5 66t-271 177t-182.5 265t-68 322zM440 1901q0 80 58 138t141 58q81 0 139 -58t58 -138 q0 -83 -57.5 -142t-139.5 -59q-83 0 -141 59t-58 142zM461 799q0 -181 127 -307.5t307 -126.5q184 0 309 126t125 308t-125 308t-309 126q-180 0 -307 -126.5t-127 -307.5zM956 1901q0 80 58 138t141 58q81 0 139 -58t58 -138q0 -83 -57.5 -142t-139.5 -59q-83 0 -141 59 t-58 142z" />
<glyph unicode="&#xf7;" horiz-adv-x="1583" d="M80 563v371h952v-371h-952zM297 262q0 106 76 182t182 76t182 -76t76 -182t-76 -182t-182 -76t-182 76t-76 182zM297 1235q0 106 76 182t182 76t182 -76t76 -182t-76 -182t-182 -76t-182 76t-76 182z" />
<glyph unicode="&#xf8;" horiz-adv-x="2258" d="M47 799q0 168 68 321.5t182 264.5t270.5 177t327.5 66q216 0 410 -104l59 73h346l-192 -239q106 -113 165.5 -257t59.5 -302q0 -168 -67.5 -322t-181.5 -265t-271 -177t-328 -66q-217 0 -410 105l-59 -74h-346l190 238q-106 112 -164.5 257t-58.5 304zM461 799 q0 -134 69 -238l519 643q-79 29 -154 29q-181 0 -307.5 -126.5t-126.5 -307.5zM739 391q71 -26 156 -26q183 0 308.5 126t125.5 308q0 128 -69 237z" />
<glyph unicode="&#xf9;" horiz-adv-x="2140" d="M100 698v899h410v-874q0 -174 82.5 -266t241.5 -92q161 0 244 92t83 266v874h408v-899q0 -155 -48.5 -287.5t-139.5 -231t-231.5 -154.5t-315.5 -56t-316 56t-231.5 154.5t-138.5 230.5t-48 288zM469 1948l199 344l532 -379l-137 -238z" />
<glyph unicode="&#xfa;" horiz-adv-x="2140" d="M100 698v899h410v-874q0 -174 82.5 -266t241.5 -92q161 0 244 92t83 266v874h408v-899q0 -155 -48.5 -287.5t-139.5 -231t-231.5 -154.5t-315.5 -56t-316 56t-231.5 154.5t-138.5 230.5t-48 288zM469 1913l532 379l199 -344l-594 -273z" />
<glyph unicode="&#xfb;" horiz-adv-x="2140" d="M100 698v899h410v-874q0 -174 82.5 -266t241.5 -92q161 0 244 92t83 266v874h408v-899q0 -155 -48.5 -287.5t-139.5 -231t-231.5 -154.5t-315.5 -56t-316 56t-231.5 154.5t-138.5 230.5t-48 288zM367 1909l467 366l464 -366l-176 -219l-288 190l-293 -190z" />
<glyph unicode="&#xfc;" horiz-adv-x="2140" d="M100 698v899h410v-874q0 -174 82.5 -266t241.5 -92q161 0 244 92t83 266v874h408v-899q0 -155 -48.5 -287.5t-139.5 -231t-231.5 -154.5t-315.5 -56t-316 56t-231.5 154.5t-138.5 230.5t-48 288zM379 1901q0 80 58 138t141 58q81 0 138.5 -58t57.5 -138q0 -83 -57 -142 t-139 -59q-83 0 -141 59t-58 142zM895 1901q0 80 58 138t141 58q81 0 138.5 -58t57.5 -138q0 -83 -57 -142t-139 -59q-83 0 -141 59t-58 142z" />
<glyph unicode="&#xfd;" horiz-adv-x="2142" d="M0 1597h481l353 -579l354 579h483l-633 -1011v-586h-407v586zM469 1913l532 379l199 -344l-594 -273z" />
<glyph unicode="&#xfe;" horiz-adv-x="1978" d="M123 0v1597h409v-184h295q154 0 276 -50t197.5 -135.5t114.5 -194.5t39 -232q0 -129 -39 -240.5t-114.5 -197.5t-197.5 -135.5t-276 -49.5h-295v-178h-409zM532 551h273q122 0 178.5 67t56.5 181q0 105 -57 173t-178 68h-273v-489z" />
<glyph unicode="&#xff;" horiz-adv-x="2142" d="M0 1597h481l353 -579l354 579h483l-633 -1011v-586h-407v586zM379 1901q0 80 58 138t141 58q81 0 138.5 -58t57.5 -138q0 -83 -57 -142t-139 -59q-83 0 -141 59t-58 142zM895 1901q0 80 58 138t141 58q81 0 138.5 -58t57.5 -138q0 -83 -57 -142t-139 -59q-83 0 -141 59 t-58 142z" />
<glyph unicode="&#x100;" d="M0 0l647 1597h406l645 -1597h-447l-88 233h-628l-89 -233h-446zM483 1700v303h734v-303h-734zM674 604h350l-174 469z" />
<glyph unicode="&#x101;" d="M0 0l647 1597h406l645 -1597h-447l-88 233h-628l-89 -233h-446zM483 1700v303h734v-303h-734zM674 604h350l-174 469z" />
<glyph unicode="&#x102;" d="M0 0l647 1597h406l645 -1597h-447l-88 233h-628l-89 -233h-446zM395 1999l242 139q81 -127 213 -127q130 0 213 127l242 -139q-64 -139 -180 -224t-275 -85q-160 0 -275 85t-180 224zM674 604h350l-174 469z" />
<glyph unicode="&#x103;" d="M0 0l647 1597h406l645 -1597h-447l-88 233h-628l-89 -233h-446zM395 1999l242 139q81 -127 213 -127q130 0 213 127l242 -139q-64 -139 -180 -224t-275 -85q-160 0 -275 85t-180 224zM674 604h350l-174 469z" />
<glyph unicode="&#x104;" d="M0 0l647 1597h404l647 -1597q-187 -84 -187 -178q0 -41 35 -57t88 -5l47 -292q-189 -23 -312.5 54t-123.5 222q0 151 146 256h-140l-88 233h-628l-89 -233h-446zM674 604h350l-174 469z" />
<glyph unicode="&#x105;" d="M0 0l647 1597h404l647 -1597q-187 -84 -187 -178q0 -41 35 -57t88 -5l47 -292q-189 -23 -312.5 54t-123.5 222q0 151 146 256h-140l-88 233h-628l-89 -233h-446zM674 604h350l-174 469z" />
<glyph unicode="&#x106;" horiz-adv-x="2144" d="M47 799q0 168 68 322t182.5 264.5t271 176.5t326.5 66q243 0 445.5 -124.5t310.5 -329.5l-373 -168q-55 103 -157 165t-226 62q-180 0 -307 -126.5t-127 -307.5t127 -307.5t307 -126.5q125 0 226.5 61.5t156.5 165.5l375 -164q-106 -207 -310 -333t-448 -126 q-170 0 -326.5 66t-271 177t-182.5 265t-68 322zM530 1933l533 379l199 -344l-594 -272z" />
<glyph unicode="&#x107;" horiz-adv-x="2144" d="M47 799q0 168 68 322t182.5 264.5t271 176.5t326.5 66q243 0 445.5 -124.5t310.5 -329.5l-373 -168q-55 103 -157 165t-226 62q-180 0 -307 -126.5t-127 -307.5t127 -307.5t307 -126.5q125 0 226.5 61.5t156.5 165.5l375 -164q-106 -207 -310 -333t-448 -126 q-170 0 -326.5 66t-271 177t-182.5 265t-68 322zM530 1933l533 379l199 -344l-594 -272z" />
<glyph unicode="&#x10a;" horiz-adv-x="2144" d="M47 799q0 168 68 322t182.5 264.5t271 176.5t326.5 66q243 0 445.5 -124.5t310.5 -329.5l-373 -168q-55 103 -157 165t-226 62q-180 0 -307 -126.5t-127 -307.5t127 -307.5t307 -126.5q125 0 226.5 61.5t156.5 165.5l375 -164q-106 -207 -310 -333t-448 -126 q-170 0 -326.5 66t-271 177t-182.5 265t-68 322zM702 1880q0 80 58 138.5t141 58.5q81 0 139 -58.5t58 -138.5q0 -83 -57.5 -142t-139.5 -59q-83 0 -141 59t-58 142z" />
<glyph unicode="&#x10b;" horiz-adv-x="2144" d="M47 799q0 168 68 322t182.5 264.5t271 176.5t326.5 66q243 0 445.5 -124.5t310.5 -329.5l-373 -168q-55 103 -157 165t-226 62q-180 0 -307 -126.5t-127 -307.5t127 -307.5t307 -126.5q125 0 226.5 61.5t156.5 165.5l375 -164q-106 -207 -310 -333t-448 -126 q-170 0 -326.5 66t-271 177t-182.5 265t-68 322zM702 1880q0 80 58 138.5t141 58.5q81 0 139 -58.5t58 -138.5q0 -83 -57.5 -142t-139.5 -59q-83 0 -141 59t-58 142z" />
<glyph unicode="&#x10c;" horiz-adv-x="2144" d="M47 799q0 168 68 322t182.5 264.5t271 176.5t326.5 66q243 0 445.5 -124.5t310.5 -329.5l-373 -168q-55 103 -157 165t-226 62q-180 0 -307 -126.5t-127 -307.5t127 -307.5t307 -126.5q125 0 226.5 61.5t156.5 165.5l375 -164q-106 -207 -310 -333t-448 -126 q-170 0 -326.5 66t-271 177t-182.5 265t-68 322zM428 2056l174 219l293 -188l289 188l176 -219l-465 -366z" />
<glyph unicode="&#x10d;" horiz-adv-x="2144" d="M47 799q0 168 68 322t182.5 264.5t271 176.5t326.5 66q243 0 445.5 -124.5t310.5 -329.5l-373 -168q-55 103 -157 165t-226 62q-180 0 -307 -126.5t-127 -307.5t127 -307.5t307 -126.5q125 0 226.5 61.5t156.5 165.5l375 -164q-106 -207 -310 -333t-448 -126 q-170 0 -326.5 66t-271 177t-182.5 265t-68 322zM428 2056l174 219l293 -188l289 188l176 -219l-465 -366z" />
<glyph unicode="&#x10e;" horiz-adv-x="2146" d="M123 0v1597h741q182 0 328 -63.5t238.5 -173.5t141 -253t48.5 -308q0 -132 -30 -250.5t-92.5 -219t-151 -174t-212 -114.5t-270.5 -41h-741zM403 2056l175 219l292 -188l289 188l176 -219l-465 -366zM532 395h302q179 0 275.5 109.5t96.5 294.5q0 184 -96.5 292.5 t-275.5 108.5h-302v-805z" />
<glyph unicode="&#x10f;" horiz-adv-x="2146" d="M123 0v1597h741q182 0 328 -63.5t238.5 -173.5t141 -253t48.5 -308q0 -132 -30 -250.5t-92.5 -219t-151 -174t-212 -114.5t-270.5 -41h-741zM403 2056l175 219l292 -188l289 188l176 -219l-465 -366zM532 395h302q179 0 275.5 109.5t96.5 294.5q0 184 -96.5 292.5 t-275.5 108.5h-302v-805z" />
<glyph unicode="&#x110;" horiz-adv-x="2156" d="M16 608v353h117v636h741q182 0 328 -63.5t238.5 -173.5t141 -253t48.5 -308q0 -132 -30 -250.5t-92.5 -219t-151 -174t-212 -114.5t-270.5 -41h-741v608h-117zM543 395h301q179 0 276 109.5t97 294.5q0 184 -97 292.5t-276 108.5h-301v-239h338v-353h-338v-213z" />
<glyph unicode="&#x111;" horiz-adv-x="2156" d="M16 608v353h117v636h741q182 0 328 -63.5t238.5 -173.5t141 -253t48.5 -308q0 -132 -30 -250.5t-92.5 -219t-151 -174t-212 -114.5t-270.5 -41h-741v608h-117zM543 395h301q179 0 276 109.5t97 294.5q0 184 -97 292.5t-276 108.5h-301v-239h338v-353h-338v-213z" />
<glyph unicode="&#x112;" horiz-adv-x="1896" d="M123 0v1597h1227v-397h-818v-229h672v-371h-672v-205h818v-395h-1227zM371 1700v303h733v-303h-733z" />
<glyph unicode="&#x113;" horiz-adv-x="1896" d="M123 0v1597h1227v-397h-818v-229h672v-371h-672v-205h818v-395h-1227zM371 1700v303h733v-303h-733z" />
<glyph unicode="&#x116;" horiz-adv-x="1896" d="M123 0v1597h1227v-397h-818v-229h672v-371h-672v-205h818v-395h-1227zM539 1880q0 80 58 138.5t140 58.5q81 0 139 -58.5t58 -138.5q0 -83 -57.5 -142t-139.5 -59q-83 0 -140.5 58.5t-57.5 142.5z" />
<glyph unicode="&#x117;" horiz-adv-x="1896" d="M123 0v1597h1227v-397h-818v-229h672v-371h-672v-205h818v-395h-1227zM539 1880q0 80 58 138.5t140 58.5q81 0 139 -58.5t58 -138.5q0 -83 -57.5 -142t-139.5 -59q-83 0 -140.5 58.5t-57.5 142.5z" />
<glyph unicode="&#x118;" horiz-adv-x="1896" d="M123 0v1597h1227v-397h-818v-229h672v-371h-672v-205h818v-395q-183 -83 -183 -178q0 -41 35 -57t88 -5l47 -292q-189 -23 -312.5 54t-123.5 222q0 151 146 256h-924z" />
<glyph unicode="&#x119;" horiz-adv-x="1896" d="M123 0v1597h1227v-397h-818v-229h672v-371h-672v-205h818v-395q-183 -83 -183 -178q0 -41 35 -57t88 -5l47 -292q-189 -23 -312.5 54t-123.5 222q0 151 146 256h-924z" />
<glyph unicode="&#x11a;" horiz-adv-x="1896" d="M123 0v1597h1227v-397h-818v-229h672v-371h-672v-205h818v-395h-1227zM268 2056l174 219l293 -188l289 188l176 -219l-465 -366z" />
<glyph unicode="&#x11b;" horiz-adv-x="1896" d="M123 0v1597h1227v-397h-818v-229h672v-371h-672v-205h818v-395h-1227zM268 2056l174 219l293 -188l289 188l176 -219l-465 -366z" />
<glyph unicode="&#x11e;" horiz-adv-x="2174" d="M47 799q0 168 68 321.5t182 264.5t270.5 177t327.5 66q202 0 380 -90t296 -244l-334 -225q-61 77 -150.5 120.5t-191.5 43.5q-181 0 -307.5 -126.5t-126.5 -307.5t126.5 -307.5t307.5 -126.5q105 0 194.5 48.5t147.5 133.5v45h-387v340h770v-932h-322v150 q-57 -87 -166.5 -134t-236.5 -47q-171 0 -327.5 66t-270.5 177t-182 265t-68 322zM438 1999l242 139q81 -127 213 -127q130 0 213 127l242 -139q-64 -139 -180 -224t-275 -85q-160 0 -275 85t-180 224z" />
<glyph unicode="&#x11f;" horiz-adv-x="2174" d="M47 799q0 168 68 321.5t182 264.5t270.5 177t327.5 66q202 0 380 -90t296 -244l-334 -225q-61 77 -150.5 120.5t-191.5 43.5q-181 0 -307.5 -126.5t-126.5 -307.5t126.5 -307.5t307.5 -126.5q105 0 194.5 48.5t147.5 133.5v45h-387v340h770v-932h-322v150 q-57 -87 -166.5 -134t-236.5 -47q-171 0 -327.5 66t-270.5 177t-182 265t-68 322zM438 1999l242 139q81 -127 213 -127q130 0 213 127l242 -139q-64 -139 -180 -224t-275 -85q-160 0 -275 85t-180 224z" />
<glyph unicode="&#x120;" horiz-adv-x="2174" d="M47 799q0 168 68 321.5t182 264.5t270.5 177t327.5 66q202 0 380 -90t296 -244l-334 -225q-61 77 -150.5 120.5t-191.5 43.5q-181 0 -307.5 -126.5t-126.5 -307.5t126.5 -307.5t307.5 -126.5q105 0 194.5 48.5t147.5 133.5v45h-387v340h770v-932h-322v150 q-57 -87 -166.5 -134t-236.5 -47q-171 0 -327.5 66t-270.5 177t-182 265t-68 322zM698 1880q0 80 58 138.5t141 58.5q81 0 139 -58.5t58 -138.5q0 -83 -57.5 -142t-139.5 -59q-83 0 -141 59t-58 142z" />
<glyph unicode="&#x121;" horiz-adv-x="2174" d="M47 799q0 168 68 321.5t182 264.5t270.5 177t327.5 66q202 0 380 -90t296 -244l-334 -225q-61 77 -150.5 120.5t-191.5 43.5q-181 0 -307.5 -126.5t-126.5 -307.5t126.5 -307.5t307.5 -126.5q105 0 194.5 48.5t147.5 133.5v45h-387v340h770v-932h-322v150 q-57 -87 -166.5 -134t-236.5 -47q-171 0 -327.5 66t-270.5 177t-182 265t-68 322zM698 1880q0 80 58 138.5t141 58.5q81 0 139 -58.5t58 -138.5q0 -83 -57.5 -142t-139.5 -59q-83 0 -141 59t-58 142z" />
<glyph unicode="&#x122;" horiz-adv-x="2174" d="M47 799q0 168 68 321.5t182 264.5t270.5 177t327.5 66q202 0 380 -90t296 -244l-334 -225q-61 77 -150.5 120.5t-191.5 43.5q-181 0 -307.5 -126.5t-126.5 -307.5t126.5 -307.5t307.5 -126.5q105 0 194.5 48.5t147.5 133.5v45h-387v340h770v-932h-322v150 q-57 -87 -166.5 -134t-236.5 -47q-171 0 -327.5 66t-270.5 177t-182 265t-68 322zM737 -532q17 20 35.5 43.5t34 45t18.5 25.5q-2 4 -17.5 19.5t-29.5 32.5t-26.5 48.5t-12.5 65.5q0 74 54.5 128t130.5 54t128 -53.5t52 -142.5q0 -75 -61.5 -166t-188.5 -213z" />
<glyph unicode="&#x123;" horiz-adv-x="2174" d="M47 799q0 168 68 321.5t182 264.5t270.5 177t327.5 66q202 0 380 -90t296 -244l-334 -225q-61 77 -150.5 120.5t-191.5 43.5q-181 0 -307.5 -126.5t-126.5 -307.5t126.5 -307.5t307.5 -126.5q105 0 194.5 48.5t147.5 133.5v45h-387v340h770v-932h-322v150 q-57 -87 -166.5 -134t-236.5 -47q-171 0 -327.5 66t-270.5 177t-182 265t-68 322zM737 -532q17 20 35.5 43.5t34 45t18.5 25.5q-2 4 -17.5 19.5t-29.5 32.5t-26.5 48.5t-12.5 65.5q0 74 54.5 128t130.5 54t128 -53.5t52 -142.5q0 -75 -61.5 -166t-188.5 -213z" />
<glyph unicode="&#x126;" horiz-adv-x="2193" d="M31 1137v305h96v155h408v-155h651v155h409v-155h97v-305h-97v-1137h-409v594h-651v-594h-408v1137h-96zM535 977h651v160h-651v-160z" />
<glyph unicode="&#x127;" horiz-adv-x="2193" d="M31 1137v305h96v155h408v-155h651v155h409v-155h97v-305h-97v-1137h-409v594h-651v-594h-408v1137h-96zM535 977h651v160h-651v-160z" />
<glyph unicode="&#x128;" horiz-adv-x="1126" d="M-86 1739q0 28 1.5 55.5t8.5 68.5t18 75.5t31.5 71.5t48 63t70 42.5t94.5 16.5q99 0 211 -80q32 -24 49 -24q16 0 20.5 13.5t2.5 51.5h272q0 -28 -1.5 -55.5t-8.5 -68.5t-18 -75.5t-31.5 -71.5t-48 -63t-70 -42.5t-94.5 -16.5q-99 0 -211 80q-32 24 -49 24 q-16 0 -20.5 -13.5t-2.5 -51.5h-272zM123 0v1597h409v-1597h-409z" />
<glyph unicode="&#x129;" horiz-adv-x="1126" d="M-86 1739q0 28 1.5 55.5t8.5 68.5t18 75.5t31.5 71.5t48 63t70 42.5t94.5 16.5q99 0 211 -80q32 -24 49 -24q16 0 20.5 13.5t2.5 51.5h272q0 -28 -1.5 -55.5t-8.5 -68.5t-18 -75.5t-31.5 -71.5t-48 -63t-70 -42.5t-94.5 -16.5q-99 0 -211 80q-32 24 -49 24 q-16 0 -20.5 -13.5t-2.5 -51.5h-272zM123 0v1597h409v-1597h-409z" />
<glyph unicode="&#x12a;" horiz-adv-x="1126" d="M-39 1700v303h733v-303h-733zM123 0v1597h409v-1597h-409z" />
<glyph unicode="&#x12b;" horiz-adv-x="1126" d="M-39 1700v303h733v-303h-733zM123 0v1597h409v-1597h-409z" />
<glyph unicode="&#x12c;" horiz-adv-x="1126" d="M-129 1999l242 139q81 -127 213 -127q130 0 213 127l241 -139q-65 -139 -180 -224t-274 -85q-160 0 -275 85t-180 224zM123 0v1597h409v-1597h-409z" />
<glyph unicode="&#x12d;" horiz-adv-x="1126" d="M-129 1999l242 139q81 -127 213 -127q130 0 213 127l241 -139q-65 -139 -180 -224t-274 -85q-160 0 -275 85t-180 224zM123 0v1597h409v-1597h-409z" />
<glyph unicode="&#x12e;" horiz-adv-x="1126" d="M82 -256q0 152 145 256h-104v1597h409v-1597h-2q-182 -82 -182 -178q0 -41 35 -57t88 -5l47 -292q-189 -23 -312.5 54t-123.5 222z" />
<glyph unicode="&#x12f;" horiz-adv-x="1126" d="M82 -256q0 152 145 256h-104v1597h409v-1597h-2q-182 -82 -182 -178q0 -41 35 -57t88 -5l47 -292q-189 -23 -312.5 54t-123.5 222z" />
<glyph unicode="&#x130;" horiz-adv-x="1126" d="M123 0v1597h409v-1597h-409zM129 1880q0 80 58 138.5t141 58.5q81 0 138.5 -58.5t57.5 -138.5q0 -83 -57 -142t-139 -59q-83 0 -141 59t-58 142z" />
<glyph unicode="&#x131;" horiz-adv-x="1126" d="M123 0v1597h409v-1597h-409z" />
<glyph unicode="&#x132;" horiz-adv-x="2488" d="M123 0v1597h409v-1597h-409zM688 592v139h410v-133q0 -68 16 -116t45.5 -72.5t63.5 -34.5t77 -10q99 0 150 50t51 183v999h408v-1005q0 -156 -48 -277t-132.5 -195.5t-193 -112.5t-235.5 -38q-123 0 -231 38t-194 112t-136.5 196t-50.5 277z" />
<glyph unicode="&#x133;" horiz-adv-x="2488" d="M123 0v1597h409v-1597h-409zM688 592v139h410v-133q0 -68 16 -116t45.5 -72.5t63.5 -34.5t77 -10q99 0 150 50t51 183v999h408v-1005q0 -156 -48 -277t-132.5 -195.5t-193 -112.5t-235.5 -38q-123 0 -231 38t-194 112t-136.5 196t-50.5 277z" />
<glyph unicode="&#x134;" horiz-adv-x="1832" d="M33 592v139h409v-133q0 -68 16 -116t46 -72.5t64 -34.5t77 -10q99 0 150 50t51 183v999h407v-1005q0 -156 -48 -277t-132 -195.5t-192.5 -112.5t-235.5 -38q-123 0 -231 38t-194 112t-136.5 196t-50.5 277zM582 1909l467 366l464 -366l-176 -219l-288 190l-293 -190z" />
<glyph unicode="&#x135;" horiz-adv-x="1832" d="M33 592v139h409v-133q0 -68 16 -116t46 -72.5t64 -34.5t77 -10q99 0 150 50t51 183v999h407v-1005q0 -156 -48 -277t-132 -195.5t-192.5 -112.5t-235.5 -38q-123 0 -231 38t-194 112t-136.5 196t-50.5 277zM582 1909l467 366l464 -366l-176 -219l-288 190l-293 -190z" />
<glyph unicode="&#x136;" horiz-adv-x="2043" d="M123 0v1597h409v-550l496 550h528l-630 -686l663 -911h-508l-440 602l-109 -121v-481h-409zM670 -532q17 20 35.5 43.5t34 45t18.5 25.5q-2 4 -17.5 19.5t-29.5 32.5t-26.5 48.5t-12.5 65.5q0 74 54 128t130 54t128 -53.5t52 -142.5q0 -75 -61.5 -166t-188.5 -213z" />
<glyph unicode="&#x137;" horiz-adv-x="2043" d="M123 0v1597h409v-550l496 550h528l-630 -686l663 -911h-508l-440 602l-109 -121v-481h-409zM670 -532q17 20 35.5 43.5t34 45t18.5 25.5q-2 4 -17.5 19.5t-29.5 32.5t-26.5 48.5t-12.5 65.5q0 74 54 128t130 54t128 -53.5t52 -142.5q0 -75 -61.5 -166t-188.5 -213z" />
<glyph unicode="&#x139;" horiz-adv-x="1794" d="M-39 1913l533 379l198 -344l-594 -273zM123 0v1597h407v-1202h766v-395h-1173z" />
<glyph unicode="&#x13a;" horiz-adv-x="1794" d="M-39 1913l533 379l198 -344l-594 -273zM123 0v1597h407v-1202h766v-395h-1173z" />
<glyph unicode="&#x13b;" horiz-adv-x="1794" d="M123 0v1597h407v-1202h766v-395h-1173zM520 -532q17 20 35.5 43.5t34 45t18.5 25.5q-2 4 -17.5 19.5t-29.5 32.5t-26.5 48.5t-12.5 65.5q0 74 54.5 128t130.5 54t128 -53.5t52 -142.5q0 -75 -61.5 -166t-188.5 -213z" />
<glyph unicode="&#x13c;" horiz-adv-x="1794" d="M123 0v1597h407v-1202h766v-395h-1173zM520 -532q17 20 35.5 43.5t34 45t18.5 25.5q-2 4 -17.5 19.5t-29.5 32.5t-26.5 48.5t-12.5 65.5q0 74 54.5 128t130.5 54t128 -53.5t52 -142.5q0 -75 -61.5 -166t-188.5 -213z" />
<glyph unicode="&#x13d;" horiz-adv-x="1794" d="M123 0v1597h407v-1202h766v-395h-1173zM608 1174q17 20 35.5 43.5t34 45t18.5 25.5q-2 4 -17.5 19.5t-29.5 32.5t-26.5 48.5t-12.5 65.5q0 74 54.5 128t130.5 54t128 -53.5t52 -142.5q0 -75 -61.5 -166t-188.5 -213z" />
<glyph unicode="&#x13e;" horiz-adv-x="1794" d="M123 0v1597h407v-1202h766v-395h-1173zM608 1174q17 20 35.5 43.5t34 45t18.5 25.5q-2 4 -17.5 19.5t-29.5 32.5t-26.5 48.5t-12.5 65.5q0 74 54.5 128t130.5 54t128 -53.5t52 -142.5q0 -75 -61.5 -166t-188.5 -213z" />
<glyph unicode="&#x13f;" horiz-adv-x="1794" d="M123 0v1597h407v-1202h766v-395h-1173zM711 858q0 80 58 138.5t140 58.5q81 0 139 -58.5t58 -138.5q0 -83 -57.5 -142t-139.5 -59q-83 0 -140.5 58.5t-57.5 142.5z" />
<glyph unicode="&#x140;" horiz-adv-x="1794" d="M123 0v1597h407v-1202h766v-395h-1173zM711 858q0 80 58 138.5t140 58.5q81 0 139 -58.5t58 -138.5q0 -83 -57.5 -142t-139.5 -59q-83 0 -140.5 58.5t-57.5 142.5z" />
<glyph unicode="&#x141;" horiz-adv-x="1810" d="M14 434v422l125 57v684h408v-499l377 172v-422l-377 -172v-281h766v-395h-1174v492z" />
<glyph unicode="&#x142;" horiz-adv-x="1810" d="M14 434v422l125 57v684h408v-499l377 172v-422l-377 -172v-281h766v-395h-1174v492z" />
<glyph unicode="&#x143;" horiz-adv-x="2185" d="M123 0v1597h348l713 -892v892h407v-1597h-346l-713 891v-891h-409zM494 1913l532 379l199 -344l-594 -273z" />
<glyph unicode="&#x144;" horiz-adv-x="2185" d="M123 0v1597h348l713 -892v892h407v-1597h-346l-713 891v-891h-409zM494 1913l532 379l199 -344l-594 -273z" />
<glyph unicode="&#x145;" horiz-adv-x="2185" d="M123 0v1597h348l713 -892v892h407v-1597h-346l-713 891v-891h-409zM674 -532q17 20 35.5 43.5t34 45t18.5 25.5q-2 4 -17.5 19.5t-29.5 32.5t-26.5 48.5t-12.5 65.5q0 74 54 128t130 54t128 -53.5t52 -142.5q0 -76 -61.5 -166.5t-187.5 -212.5z" />
<glyph unicode="&#x146;" horiz-adv-x="2185" d="M123 0v1597h348l713 -892v892h407v-1597h-346l-713 891v-891h-409zM674 -532q17 20 35.5 43.5t34 45t18.5 25.5q-2 4 -17.5 19.5t-29.5 32.5t-26.5 48.5t-12.5 65.5q0 74 54 128t130 54t128 -53.5t52 -142.5q0 -76 -61.5 -166.5t-187.5 -212.5z" />
<glyph unicode="&#x147;" horiz-adv-x="2185" d="M123 0v1597h348l713 -892v892h407v-1597h-346l-713 891v-891h-409zM391 2056l174 219l293 -188l289 188l176 -219l-465 -366z" />
<glyph unicode="&#x148;" horiz-adv-x="2185" d="M123 0v1597h348l713 -892v892h407v-1597h-346l-713 891v-891h-409zM391 2056l174 219l293 -188l289 188l176 -219l-465 -366z" />
<glyph unicode="&#x14a;" horiz-adv-x="2185" d="M123 0v1597h348l713 -892v892h407v-1617q0 -154 -52.5 -276.5t-139 -196.5t-191 -112t-217.5 -38q-203 0 -352 116t-197 289l389 125q12 -67 67 -101t116 -34q29 0 55 9t54 32t44.5 72.5t16.5 120.5v90l-652 815v-891h-409z" />
<glyph unicode="&#x14b;" horiz-adv-x="2185" d="M123 0v1597h348l713 -892v892h407v-1617q0 -154 -52.5 -276.5t-139 -196.5t-191 -112t-217.5 -38q-203 0 -352 116t-197 289l389 125q12 -67 67 -101t116 -34q29 0 55 9t54 32t44.5 72.5t16.5 120.5v90l-652 815v-891h-409z" />
<glyph unicode="&#x14c;" horiz-adv-x="2260" d="M47 799q0 168 68 322t182.5 264.5t271 176.5t326.5 66q172 0 329 -66t270.5 -177t181 -264.5t67.5 -321.5t-67.5 -322t-181 -265t-270.5 -177t-329 -66q-170 0 -326.5 66t-271 177t-182.5 265t-68 322zM461 799q0 -181 127 -307.5t307 -126.5q184 0 309 126t125 308 t-125 308t-309 126q-180 0 -307 -126.5t-127 -307.5zM530 1700v303h734v-303h-734z" />
<glyph unicode="&#x14d;" horiz-adv-x="2260" d="M47 799q0 168 68 322t182.5 264.5t271 176.5t326.5 66q172 0 329 -66t270.5 -177t181 -264.5t67.5 -321.5t-67.5 -322t-181 -265t-270.5 -177t-329 -66q-170 0 -326.5 66t-271 177t-182.5 265t-68 322zM461 799q0 -181 127 -307.5t307 -126.5q184 0 309 126t125 308 t-125 308t-309 126q-180 0 -307 -126.5t-127 -307.5zM530 1700v303h734v-303h-734z" />
<glyph unicode="&#x14e;" horiz-adv-x="2260" d="M47 799q0 168 68 322t182.5 264.5t271 176.5t326.5 66q172 0 329 -66t270.5 -177t181 -264.5t67.5 -321.5t-67.5 -322t-181 -265t-270.5 -177t-329 -66q-170 0 -326.5 66t-271 177t-182.5 265t-68 322zM440 1999l242 139q81 -127 213 -127q130 0 213 127l242 -139 q-64 -139 -180 -224t-275 -85q-160 0 -275 85t-180 224zM461 799q0 -181 127 -307.5t307 -126.5q184 0 309 126t125 308t-125 308t-309 126q-180 0 -307 -126.5t-127 -307.5z" />
<glyph unicode="&#x14f;" horiz-adv-x="2260" d="M47 799q0 168 68 322t182.5 264.5t271 176.5t326.5 66q172 0 329 -66t270.5 -177t181 -264.5t67.5 -321.5t-67.5 -322t-181 -265t-270.5 -177t-329 -66q-170 0 -326.5 66t-271 177t-182.5 265t-68 322zM440 1999l242 139q81 -127 213 -127q130 0 213 127l242 -139 q-64 -139 -180 -224t-275 -85q-160 0 -275 85t-180 224zM461 799q0 -181 127 -307.5t307 -126.5q184 0 309 126t125 308t-125 308t-309 126q-180 0 -307 -126.5t-127 -307.5z" />
<glyph unicode="&#x150;" horiz-adv-x="2260" d="M47 799q0 168 68 322t182.5 264.5t271 176.5t326.5 66q172 0 329 -66t270.5 -177t181 -264.5t67.5 -321.5t-67.5 -322t-181 -265t-270.5 -177t-329 -66q-170 0 -326.5 66t-271 177t-182.5 265t-68 322zM416 1978l336 418l280 -280l-420 -334zM461 799q0 -181 127 -307.5 t307 -126.5q184 0 309 126t125 308t-125 308t-309 126q-180 0 -307 -126.5t-127 -307.5zM969 1978l331 420l281 -280l-418 -336z" />
<glyph unicode="&#x151;" horiz-adv-x="2260" d="M47 799q0 168 68 322t182.5 264.5t271 176.5t326.5 66q172 0 329 -66t270.5 -177t181 -264.5t67.5 -321.5t-67.5 -322t-181 -265t-270.5 -177t-329 -66q-170 0 -326.5 66t-271 177t-182.5 265t-68 322zM416 1978l336 418l280 -280l-420 -334zM461 799q0 -181 127 -307.5 t307 -126.5q184 0 309 126t125 308t-125 308t-309 126q-180 0 -307 -126.5t-127 -307.5zM969 1978l331 420l281 -280l-418 -336z" />
<glyph unicode="&#x152;" horiz-adv-x="2875" d="M49 799q0 128 38.5 247t115 219t183.5 174t251.5 116t310.5 42h1383v-397h-818v-229h672v-371h-672v-205h818v-395h-1383q-207 0 -379 64.5t-284.5 174t-174 254t-61.5 306.5zM463 799q0 -180 124.5 -292t360.5 -112h156v805h-156q-236 0 -360.5 -111t-124.5 -290z" />
<glyph unicode="&#x153;" horiz-adv-x="2875" d="M49 799q0 128 38.5 247t115 219t183.5 174t251.5 116t310.5 42h1383v-397h-818v-229h672v-371h-672v-205h818v-395h-1383q-207 0 -379 64.5t-284.5 174t-174 254t-61.5 306.5zM463 799q0 -180 124.5 -292t360.5 -112h156v805h-156q-236 0 -360.5 -111t-124.5 -290z" />
<glyph unicode="&#x154;" horiz-adv-x="2039" d="M123 0v1597h780q149 0 265.5 -46t188 -127t108 -185t36.5 -225q0 -175 -80 -317.5t-235 -213.5l346 -483h-490l-303 428h-209v-428h-407zM461 1913l532 379l199 -344l-594 -273zM530 799h351q115 0 170 59.5t55 151.5q0 99 -54 157t-171 58h-351v-426z" />
<glyph unicode="&#x155;" horiz-adv-x="2039" d="M123 0v1597h780q149 0 265.5 -46t188 -127t108 -185t36.5 -225q0 -175 -80 -317.5t-235 -213.5l346 -483h-490l-303 428h-209v-428h-407zM461 1913l532 379l199 -344l-594 -273zM530 799h351q115 0 170 59.5t55 151.5q0 99 -54 157t-171 58h-351v-426z" />
<glyph unicode="&#x156;" horiz-adv-x="2039" d="M123 0v1597h780q149 0 265.5 -46t188 -127t108 -185t36.5 -225q0 -175 -80 -317.5t-235 -213.5l346 -483h-490l-303 428h-209v-428h-407zM530 799h351q115 0 170 59.5t55 151.5q0 99 -54 157t-171 58h-351v-426zM639 -532q17 20 35.5 43.5t34 45t18.5 25.5 q-2 4 -17.5 19.5t-29.5 32.5t-26.5 48.5t-12.5 65.5q0 74 54 128t130 54t128.5 -53.5t52.5 -142.5q0 -75 -61.5 -166t-188.5 -213z" />
<glyph unicode="&#x157;" horiz-adv-x="2039" d="M123 0v1597h780q149 0 265.5 -46t188 -127t108 -185t36.5 -225q0 -175 -80 -317.5t-235 -213.5l346 -483h-490l-303 428h-209v-428h-407zM530 799h351q115 0 170 59.5t55 151.5q0 99 -54 157t-171 58h-351v-426zM639 -532q17 20 35.5 43.5t34 45t18.5 25.5 q-2 4 -17.5 19.5t-29.5 32.5t-26.5 48.5t-12.5 65.5q0 74 54 128t130 54t128.5 -53.5t52.5 -142.5q0 -75 -61.5 -166t-188.5 -213z" />
<glyph unicode="&#x158;" horiz-adv-x="2039" d="M123 0v1597h780q149 0 265.5 -46t188 -127t108 -185t36.5 -225q0 -175 -80 -317.5t-235 -213.5l346 -483h-490l-303 428h-209v-428h-407zM358 2056l174 219l293 -188l289 188l176 -219l-465 -366zM530 799h351q115 0 170 59.5t55 151.5q0 99 -54 157t-171 58h-351v-426z " />
<glyph unicode="&#x159;" horiz-adv-x="2039" d="M123 0v1597h780q149 0 265.5 -46t188 -127t108 -185t36.5 -225q0 -175 -80 -317.5t-235 -213.5l346 -483h-490l-303 428h-209v-428h-407zM358 2056l174 219l293 -188l289 188l176 -219l-465 -366zM530 799h351q115 0 170 59.5t55 151.5q0 99 -54 157t-171 58h-351v-426z " />
<glyph unicode="&#x15a;" horiz-adv-x="1902" d="M59 461v18h400v-10q0 -53 71 -99t199 -46q106 0 154.5 28.5t48.5 69.5q0 49 -60 85.5t-213 88.5q-67 22 -113.5 39t-113 46.5t-112 57.5t-96 70.5t-81.5 88t-51 106t-20 129.5q0 226 173.5 360.5t450.5 134.5q186 0 334 -62t234 -180.5t86 -273.5v-22h-400v14 q0 66 -64.5 118t-180.5 52q-97 0 -146 -32t-49 -77t55 -76.5t209 -84.5q210 -74 316 -136q282 -164 282 -424q0 -152 -83.5 -260.5t-225 -161.5t-326.5 -53q-193 0 -345.5 57t-242.5 169.5t-90 265.5zM332 1913l532 379l199 -344l-594 -273z" />
<glyph unicode="&#x15b;" horiz-adv-x="1902" d="M59 461v18h400v-10q0 -53 71 -99t199 -46q106 0 154.5 28.5t48.5 69.5q0 49 -60 85.5t-213 88.5q-67 22 -113.5 39t-113 46.5t-112 57.5t-96 70.5t-81.5 88t-51 106t-20 129.5q0 226 173.5 360.5t450.5 134.5q186 0 334 -62t234 -180.5t86 -273.5v-22h-400v14 q0 66 -64.5 118t-180.5 52q-97 0 -146 -32t-49 -77t55 -76.5t209 -84.5q210 -74 316 -136q282 -164 282 -424q0 -152 -83.5 -260.5t-225 -161.5t-326.5 -53q-193 0 -345.5 57t-242.5 169.5t-90 265.5zM332 1913l532 379l199 -344l-594 -273z" />
<glyph unicode="&#x15c;" horiz-adv-x="1902" d="M59 461v18h400v-10q0 -53 71 -99t199 -46q106 0 154.5 28.5t48.5 69.5q0 49 -60 85.5t-213 88.5q-67 22 -113.5 39t-113 46.5t-112 57.5t-96 70.5t-81.5 88t-51 106t-20 129.5q0 226 173.5 360.5t450.5 134.5q186 0 334 -62t234 -180.5t86 -273.5v-22h-400v14 q0 66 -64.5 118t-180.5 52q-97 0 -146 -32t-49 -77t55 -76.5t209 -84.5q210 -74 316 -136q282 -164 282 -424q0 -152 -83.5 -260.5t-225 -161.5t-326.5 -53q-193 0 -345.5 57t-242.5 169.5t-90 265.5zM229 1909l467 366l465 -366l-176 -219l-289 190l-293 -190z" />
<glyph unicode="&#x15d;" horiz-adv-x="1902" d="M59 461v18h400v-10q0 -53 71 -99t199 -46q106 0 154.5 28.5t48.5 69.5q0 49 -60 85.5t-213 88.5q-67 22 -113.5 39t-113 46.5t-112 57.5t-96 70.5t-81.5 88t-51 106t-20 129.5q0 226 173.5 360.5t450.5 134.5q186 0 334 -62t234 -180.5t86 -273.5v-22h-400v14 q0 66 -64.5 118t-180.5 52q-97 0 -146 -32t-49 -77t55 -76.5t209 -84.5q210 -74 316 -136q282 -164 282 -424q0 -152 -83.5 -260.5t-225 -161.5t-326.5 -53q-193 0 -345.5 57t-242.5 169.5t-90 265.5zM229 1909l467 366l465 -366l-176 -219l-289 190l-293 -190z" />
<glyph unicode="&#x15e;" horiz-adv-x="1902" d="M59 461v18h400v-10q0 -53 71 -99t199 -46q106 0 154.5 28.5t48.5 69.5q0 49 -60 85.5t-213 88.5q-67 22 -113.5 39t-113 46.5t-112 57.5t-96 70.5t-81.5 88t-51 106t-20 129.5q0 226 173.5 360.5t450.5 134.5q186 0 334 -62t234 -180.5t86 -273.5v-22h-400v14 q0 66 -64.5 118t-180.5 52q-97 0 -146 -32t-49 -77t55 -76.5t209 -84.5q210 -74 316 -136q282 -164 282 -424q0 -137 -68.5 -239.5t-186.5 -159t-275 -70.5l-17 -88q86 -26 126 -90.5t40 -144.5q0 -114 -73.5 -189t-206.5 -75q-61 0 -133.5 16t-115.5 32l-42 17l106 246 q100 -51 168 -51q43 0 59.5 15t16.5 32q0 13 -6 24.5t-24.5 21t-53.5 -4.5l-98 88l57 149q-171 14 -302 73.5t-207.5 166.5t-76.5 248z" />
<glyph unicode="&#x15f;" horiz-adv-x="1902" d="M59 461v18h400v-10q0 -53 71 -99t199 -46q106 0 154.5 28.5t48.5 69.5q0 49 -60 85.5t-213 88.5q-67 22 -113.5 39t-113 46.5t-112 57.5t-96 70.5t-81.5 88t-51 106t-20 129.5q0 226 173.5 360.5t450.5 134.5q186 0 334 -62t234 -180.5t86 -273.5v-22h-400v14 q0 66 -64.5 118t-180.5 52q-97 0 -146 -32t-49 -77t55 -76.5t209 -84.5q210 -74 316 -136q282 -164 282 -424q0 -137 -68.5 -239.5t-186.5 -159t-275 -70.5l-17 -88q86 -26 126 -90.5t40 -144.5q0 -114 -73.5 -189t-206.5 -75q-61 0 -133.5 16t-115.5 32l-42 17l106 246 q100 -51 168 -51q43 0 59.5 15t16.5 32q0 13 -6 24.5t-24.5 21t-53.5 -4.5l-98 88l57 149q-171 14 -302 73.5t-207.5 166.5t-76.5 248z" />
<glyph unicode="&#x160;" horiz-adv-x="1902" d="M59 461v18h400v-10q0 -53 71 -99t199 -46q106 0 154.5 28.5t48.5 69.5q0 49 -60 85.5t-213 88.5q-67 22 -113.5 39t-113 46.5t-112 57.5t-96 70.5t-81.5 88t-51 106t-20 129.5q0 226 173.5 360.5t450.5 134.5q186 0 334 -62t234 -180.5t86 -273.5v-22h-400v14 q0 66 -64.5 118t-180.5 52q-97 0 -146 -32t-49 -77t55 -76.5t209 -84.5q210 -74 316 -136q282 -164 282 -424q0 -152 -83.5 -260.5t-225 -161.5t-326.5 -53q-193 0 -345.5 57t-242.5 169.5t-90 265.5zM231 2056l175 219l292 -188l289 188l176 -219l-465 -366z" />
<glyph unicode="&#x161;" horiz-adv-x="1902" d="M59 461v18h400v-10q0 -53 71 -99t199 -46q106 0 154.5 28.5t48.5 69.5q0 49 -60 85.5t-213 88.5q-67 22 -113.5 39t-113 46.5t-112 57.5t-96 70.5t-81.5 88t-51 106t-20 129.5q0 226 173.5 360.5t450.5 134.5q186 0 334 -62t234 -180.5t86 -273.5v-22h-400v14 q0 66 -64.5 118t-180.5 52q-97 0 -146 -32t-49 -77t55 -76.5t209 -84.5q210 -74 316 -136q282 -164 282 -424q0 -152 -83.5 -260.5t-225 -161.5t-326.5 -53q-193 0 -345.5 57t-242.5 169.5t-90 265.5zM231 2056l175 219l292 -188l289 188l176 -219l-465 -366z" />
<glyph unicode="&#x162;" horiz-adv-x="1925" d="M25 1200v397h1405v-397h-498v-1200h-410v1200h-497zM539 -532q17 20 35.5 43.5t34 45t18.5 25.5q-2 4 -17.5 19.5t-29.5 32.5t-26.5 48.5t-12.5 65.5q0 74 54 128t130 54t128 -53.5t52 -142.5q0 -75 -61.5 -166t-188.5 -213z" />
<glyph unicode="&#x163;" horiz-adv-x="1925" d="M25 1200v397h1405v-397h-498v-1200h-410v1200h-497zM539 -532q17 20 35.5 43.5t34 45t18.5 25.5q-2 4 -17.5 19.5t-29.5 32.5t-26.5 48.5t-12.5 65.5q0 74 54 128t130 54t128 -53.5t52 -142.5q0 -75 -61.5 -166t-188.5 -213z" />
<glyph unicode="&#x164;" horiz-adv-x="1925" d="M25 1200v397h1405v-397h-498v-1200h-410v1200h-497zM258 2056l174 219l293 -188l289 188l176 -219l-465 -366z" />
<glyph unicode="&#x165;" horiz-adv-x="1925" d="M25 1200v397h1405v-397h-498v-1200h-410v1200h-497zM258 2056l174 219l293 -188l289 188l176 -219l-465 -366z" />
<glyph unicode="&#x166;" horiz-adv-x="1943" d="M35 1200v397h1405v-397h-498v-387h248v-303h-248v-510h-410v510h-249v303h249v387h-497z" />
<glyph unicode="&#x167;" horiz-adv-x="1943" d="M35 1200v397h1405v-397h-498v-387h248v-303h-248v-510h-410v510h-249v303h249v387h-497z" />
<glyph unicode="&#x168;" horiz-adv-x="2140" d="M100 698v899h410v-874q0 -174 82.5 -266t241.5 -92q161 0 244 92t83 266v874h408v-899q0 -155 -48.5 -287.5t-139.5 -231t-231.5 -154.5t-315.5 -56t-316 56t-231.5 154.5t-138.5 230.5t-48 288zM422 1739q0 28 1.5 55.5t8.5 68.5t18 75.5t31.5 71.5t48 63t70 42.5 t94.5 16.5q99 0 211 -80q32 -24 49 -24q16 0 20.5 13.5t2.5 51.5h272q0 -28 -1.5 -55.5t-8.5 -68.5t-18 -75.5t-31.5 -71.5t-48 -63t-70 -42.5t-94.5 -16.5q-99 0 -211 80q-32 24 -49 24q-16 0 -20.5 -13.5t-2.5 -51.5h-272z" />
<glyph unicode="&#x169;" horiz-adv-x="2140" d="M100 698v899h410v-874q0 -174 82.5 -266t241.5 -92q161 0 244 92t83 266v874h408v-899q0 -155 -48.5 -287.5t-139.5 -231t-231.5 -154.5t-315.5 -56t-316 56t-231.5 154.5t-138.5 230.5t-48 288zM422 1739q0 28 1.5 55.5t8.5 68.5t18 75.5t31.5 71.5t48 63t70 42.5 t94.5 16.5q99 0 211 -80q32 -24 49 -24q16 0 20.5 13.5t2.5 51.5h272q0 -28 -1.5 -55.5t-8.5 -68.5t-18 -75.5t-31.5 -71.5t-48 -63t-70 -42.5t-94.5 -16.5q-99 0 -211 80q-32 24 -49 24q-16 0 -20.5 -13.5t-2.5 -51.5h-272z" />
<glyph unicode="&#x16a;" horiz-adv-x="2140" d="M100 698v899h410v-874q0 -174 82.5 -266t241.5 -92q161 0 244 92t83 266v874h408v-899q0 -155 -48.5 -287.5t-139.5 -231t-231.5 -154.5t-315.5 -56t-316 56t-231.5 154.5t-138.5 230.5t-48 288zM469 1700v303h733v-303h-733z" />
<glyph unicode="&#x16b;" horiz-adv-x="2140" d="M100 698v899h410v-874q0 -174 82.5 -266t241.5 -92q161 0 244 92t83 266v874h408v-899q0 -155 -48.5 -287.5t-139.5 -231t-231.5 -154.5t-315.5 -56t-316 56t-231.5 154.5t-138.5 230.5t-48 288zM469 1700v303h733v-303h-733z" />
<glyph unicode="&#x16c;" horiz-adv-x="2140" d="M100 698v899h410v-874q0 -174 82.5 -266t241.5 -92q161 0 244 92t83 266v874h408v-899q0 -155 -48.5 -287.5t-139.5 -231t-231.5 -154.5t-315.5 -56t-316 56t-231.5 154.5t-138.5 230.5t-48 288zM379 1999l242 139q81 -127 213 -127q130 0 213 127l241 -139 q-65 -139 -180 -224t-274 -85q-160 0 -275 85t-180 224z" />
<glyph unicode="&#x16d;" horiz-adv-x="2140" d="M100 698v899h410v-874q0 -174 82.5 -266t241.5 -92q161 0 244 92t83 266v874h408v-899q0 -155 -48.5 -287.5t-139.5 -231t-231.5 -154.5t-315.5 -56t-316 56t-231.5 154.5t-138.5 230.5t-48 288zM379 1999l242 139q81 -127 213 -127q130 0 213 127l241 -139 q-65 -139 -180 -224t-274 -85q-160 0 -275 85t-180 224z" />
<glyph unicode="&#x16e;" horiz-adv-x="2140" d="M100 698v899h410v-874q0 -174 82.5 -266t241.5 -92q161 0 244 92t83 266v874h408v-899q0 -155 -48.5 -287.5t-139.5 -231t-231.5 -154.5t-315.5 -56t-316 56t-231.5 154.5t-138.5 230.5t-48 288zM494 1987q0 141 99 241.5t238 100.5q140 0 241.5 -101.5t101.5 -240.5 t-101.5 -238.5t-241.5 -99.5q-139 0 -238 99t-99 239zM733 1987q0 -41 28.5 -70t69.5 -29t70 29t29 70t-29 69.5t-70 28.5t-69.5 -28.5t-28.5 -69.5z" />
<glyph unicode="&#x16f;" horiz-adv-x="2140" d="M100 698v899h410v-874q0 -174 82.5 -266t241.5 -92q161 0 244 92t83 266v874h408v-899q0 -155 -48.5 -287.5t-139.5 -231t-231.5 -154.5t-315.5 -56t-316 56t-231.5 154.5t-138.5 230.5t-48 288zM494 1987q0 141 99 241.5t238 100.5q140 0 241.5 -101.5t101.5 -240.5 t-101.5 -238.5t-241.5 -99.5q-139 0 -238 99t-99 239zM733 1987q0 -41 28.5 -70t69.5 -29t70 29t29 70t-29 69.5t-70 28.5t-69.5 -28.5t-28.5 -69.5z" />
<glyph unicode="&#x170;" horiz-adv-x="2140" d="M100 698v899h410v-874q0 -174 82.5 -266t241.5 -92q161 0 244 92t83 266v874h408v-899q0 -155 -48.5 -287.5t-139.5 -231t-231.5 -154.5t-315.5 -56t-316 56t-231.5 154.5t-138.5 230.5t-48 288zM354 1978l336 418l281 -280l-420 -334zM907 1978l332 420l281 -280 l-418 -336z" />
<glyph unicode="&#x171;" horiz-adv-x="2140" d="M100 698v899h410v-874q0 -174 82.5 -266t241.5 -92q161 0 244 92t83 266v874h408v-899q0 -155 -48.5 -287.5t-139.5 -231t-231.5 -154.5t-315.5 -56t-316 56t-231.5 154.5t-138.5 230.5t-48 288zM354 1978l336 418l281 -280l-420 -334zM907 1978l332 420l281 -280 l-418 -336z" />
<glyph unicode="&#x172;" horiz-adv-x="2140" d="M100 698v899h410v-874q0 -174 82.5 -266t241.5 -92q161 0 244 92t83 266v874h408v-899q0 -177 -61.5 -323.5t-186 -248.5t-297.5 -138q-156 -76 -156 -166q0 -41 35 -57t88 -5l47 -292q-189 -23 -312.5 54t-123.5 222q0 135 115 231q-148 17 -266 79.5t-194.5 158.5 t-116.5 219.5t-40 265.5z" />
<glyph unicode="&#x173;" horiz-adv-x="2140" d="M100 698v899h410v-874q0 -174 82.5 -266t241.5 -92q161 0 244 92t83 266v874h408v-899q0 -177 -61.5 -323.5t-186 -248.5t-297.5 -138q-156 -76 -156 -166q0 -41 35 -57t88 -5l47 -292q-189 -23 -312.5 54t-123.5 222q0 135 115 231q-148 17 -266 79.5t-194.5 158.5 t-116.5 219.5t-40 265.5z" />
<glyph unicode="&#x174;" horiz-adv-x="2820" d="M-2 1597h436l258 -952l299 952h365l299 -950l258 950h438l-448 -1597h-424l-305 928l-304 -928h-424zM707 1909l467 366l464 -366l-176 -219l-288 190l-293 -190z" />
<glyph unicode="&#x175;" horiz-adv-x="2820" d="M-2 1597h436l258 -952l299 952h365l299 -950l258 950h438l-448 -1597h-424l-305 928l-304 -928h-424zM707 1909l467 366l464 -366l-176 -219l-288 190l-293 -190z" />
<glyph unicode="&#x177;" horiz-adv-x="2142" d="M0 1597h481l353 -579l354 579h483l-633 -1011v-586h-407v586zM367 1909l467 366l464 -366l-176 -219l-288 190l-293 -190z" />
<glyph unicode="&#x178;" horiz-adv-x="2142" d="M0 1597h481l353 -579l354 579h483l-633 -1011v-586h-407v586zM379 1901q0 80 58 138t141 58q81 0 138.5 -58t57.5 -138q0 -83 -57 -142t-139 -59q-83 0 -141 59t-58 142zM895 1901q0 80 58 138t141 58q81 0 138.5 -58t57.5 -138q0 -83 -57 -142t-139 -59q-83 0 -141 59 t-58 142z" />
<glyph unicode="&#x179;" horiz-adv-x="1964" d="M63 0v299l744 901h-719v397h1329v-299l-745 -903h747v-395h-1356zM377 1913l532 379l199 -344l-594 -273z" />
<glyph unicode="&#x17a;" horiz-adv-x="1964" d="M63 0v299l744 901h-719v397h1329v-299l-745 -903h747v-395h-1356zM377 1913l532 379l199 -344l-594 -273z" />
<glyph unicode="&#x17b;" horiz-adv-x="1964" d="M63 0v299l744 901h-719v397h1329v-299l-745 -903h747v-395h-1356zM545 1880q0 80 58 138.5t140 58.5q81 0 139 -58.5t58 -138.5q0 -83 -57.5 -142t-139.5 -59q-83 0 -140.5 58.5t-57.5 142.5z" />
<glyph unicode="&#x17c;" horiz-adv-x="1964" d="M63 0v299l744 901h-719v397h1329v-299l-745 -903h747v-395h-1356zM545 1880q0 80 58 138.5t140 58.5q81 0 139 -58.5t58 -138.5q0 -83 -57.5 -142t-139.5 -59q-83 0 -140.5 58.5t-57.5 142.5z" />
<glyph unicode="&#x17d;" horiz-adv-x="1964" d="M63 0v299l744 901h-719v397h1329v-299l-745 -903h747v-395h-1356zM274 2056l175 219l292 -188l289 188l176 -219l-465 -366z" />
<glyph unicode="&#x17e;" horiz-adv-x="1964" d="M63 0v299l744 901h-719v397h1329v-299l-745 -903h747v-395h-1356zM274 2056l175 219l292 -188l289 188l176 -219l-465 -366z" />
<glyph unicode="&#x1fc;" horiz-adv-x="3094" d="M-20 0l1284 1597h1284v-397h-819v-229h673v-371h-673v-205h819v-395h-1227v233h-631l-184 -233h-526zM981 604h340v430zM1321 1913l532 379l199 -344l-594 -273z" />
<glyph unicode="&#x1fd;" horiz-adv-x="3094" d="M-20 0l1284 1597h1284v-397h-819v-229h673v-371h-673v-205h819v-395h-1227v233h-631l-184 -233h-526zM981 604h340v430zM1321 1913l532 379l199 -344l-594 -273z" />
<glyph unicode="&#x1fe;" horiz-adv-x="2258" d="M47 799q0 168 68 321.5t182 264.5t270.5 177t327.5 66q216 0 410 -104l59 73h346l-192 -239q106 -113 165.5 -257t59.5 -302q0 -168 -67.5 -322t-181.5 -265t-271 -177t-328 -66q-217 0 -410 105l-59 -74h-346l190 238q-106 112 -164.5 257t-58.5 304zM461 799 q0 -134 69 -238l519 643q-79 29 -154 29q-181 0 -307.5 -126.5t-126.5 -307.5zM530 1913l533 379l199 -344l-594 -273zM739 391q71 -26 156 -26q183 0 308.5 126t125.5 308q0 128 -69 237z" />
<glyph unicode="&#x1ff;" horiz-adv-x="2258" d="M47 799q0 168 68 321.5t182 264.5t270.5 177t327.5 66q216 0 410 -104l59 73h346l-192 -239q106 -113 165.5 -257t59.5 -302q0 -168 -67.5 -322t-181.5 -265t-271 -177t-328 -66q-217 0 -410 105l-59 -74h-346l190 238q-106 112 -164.5 257t-58.5 304zM461 799 q0 -134 69 -238l519 643q-79 29 -154 29q-181 0 -307.5 -126.5t-126.5 -307.5zM530 1913l533 379l199 -344l-594 -273zM739 391q71 -26 156 -26q183 0 308.5 126t125.5 308q0 128 -69 237z" />
<glyph unicode="&#x218;" horiz-adv-x="1902" d="M59 461v18h400v-10q0 -53 71 -99t199 -46q106 0 154.5 28.5t48.5 69.5q0 49 -60 85.5t-213 88.5q-67 22 -113.5 39t-113 46.5t-112 57.5t-96 70.5t-81.5 88t-51 106t-20 129.5q0 226 173.5 360.5t450.5 134.5q186 0 334 -62t234 -180.5t86 -273.5v-22h-400v14 q0 66 -64.5 118t-180.5 52q-97 0 -146 -32t-49 -77t55 -76.5t209 -84.5q210 -74 316 -136q282 -164 282 -424q0 -152 -83.5 -260.5t-225 -161.5t-326.5 -53q-193 0 -345.5 57t-242.5 169.5t-90 265.5zM549 -532q17 20 35.5 43.5t34 45t18.5 25.5q-2 4 -17.5 19.5t-29.5 32.5 t-26.5 48.5t-12.5 65.5q0 74 54 128t130 54t128 -53.5t52 -142.5q0 -76 -61.5 -166.5t-187.5 -212.5z" />
<glyph unicode="&#x219;" horiz-adv-x="1902" d="M59 461v18h400v-10q0 -53 71 -99t199 -46q106 0 154.5 28.5t48.5 69.5q0 49 -60 85.5t-213 88.5q-67 22 -113.5 39t-113 46.5t-112 57.5t-96 70.5t-81.5 88t-51 106t-20 129.5q0 226 173.5 360.5t450.5 134.5q186 0 334 -62t234 -180.5t86 -273.5v-22h-400v14 q0 66 -64.5 118t-180.5 52q-97 0 -146 -32t-49 -77t55 -76.5t209 -84.5q210 -74 316 -136q282 -164 282 -424q0 -152 -83.5 -260.5t-225 -161.5t-326.5 -53q-193 0 -345.5 57t-242.5 169.5t-90 265.5zM549 -532q17 20 35.5 43.5t34 45t18.5 25.5q-2 4 -17.5 19.5t-29.5 32.5 t-26.5 48.5t-12.5 65.5q0 74 54 128t130 54t128 -53.5t52 -142.5q0 -76 -61.5 -166.5t-187.5 -212.5z" />
<glyph unicode="&#x2c6;" horiz-adv-x="1480" d="M39 1909l467 366l465 -366l-176 -219l-289 190l-293 -190z" />
<glyph unicode="&#x2c7;" horiz-adv-x="1480" d="M39 2056l174 219l293 -188l289 188l176 -219l-465 -366z" />
<glyph unicode="&#x2d8;" horiz-adv-x="1380" d="M0 1999l242 139q81 -127 213 -127q130 0 213 127l241 -139q-65 -139 -180 -224t-274 -85q-160 0 -275 85t-180 224z" />
<glyph unicode="&#x2d9;" horiz-adv-x="866" d="M0 1880q0 80 58 138.5t141 58.5q81 0 138.5 -58.5t57.5 -138.5q0 -83 -57 -142t-139 -59q-83 0 -141 59t-58 142z" />
<glyph unicode="&#x2da;" horiz-adv-x="1150" d="M0 1987q0 141 99.5 241.5t238.5 100.5q140 0 241 -101.5t101 -240.5t-101 -238.5t-241 -99.5t-239 99.5t-99 238.5zM240 1987q0 -41 28.5 -70t69.5 -29t69.5 29t28.5 70t-28.5 69.5t-69.5 28.5t-69.5 -28.5t-28.5 -69.5z" />
<glyph unicode="&#x2db;" horiz-adv-x="907" d="M0 -256q0 63 27.5 118.5t65.5 93t96.5 72.5t100 53.5t97.5 39.5l62 -121q-183 -83 -183 -178q0 -41 35 -57t88 -5l47 -292q-189 -23 -312.5 54t-123.5 222z" />
<glyph unicode="&#x2dc;" horiz-adv-x="1433" d="M68 1739q0 28 1.5 55.5t8.5 68.5t18 75.5t31.5 71.5t48 63t70 42.5t94.5 16.5q99 0 211 -80q32 -24 49 -24q16 0 20.5 13.5t2.5 51.5h272q0 -28 -1.5 -55.5t-8.5 -68.5t-18 -75.5t-31.5 -71.5t-48 -63t-70 -42.5t-94.5 -16.5q-99 0 -211 80q-32 24 -50 24 q-16 0 -20 -13.5t-2 -51.5h-272z" />
<glyph unicode="&#x2dd;" horiz-adv-x="1636" d="M0 1978l336 418l280 -280l-419 -334zM553 1978l332 420l280 -280l-417 -336z" />
<glyph unicode="&#x1e80;" horiz-adv-x="2820" d="M-2 1597h436l258 -952l299 952h365l299 -950l258 950h438l-448 -1597h-424l-305 928l-304 -928h-424zM809 1948l199 344l532 -379l-137 -238z" />
<glyph unicode="&#x1e81;" horiz-adv-x="2820" d="M-2 1597h436l258 -952l299 952h365l299 -950l258 950h438l-448 -1597h-424l-305 928l-304 -928h-424zM809 1948l199 344l532 -379l-137 -238z" />
<glyph unicode="&#x1e82;" horiz-adv-x="2820" d="M-2 1597h436l258 -952l299 952h365l299 -950l258 950h438l-448 -1597h-424l-305 928l-304 -928h-424zM809 1913l532 379l199 -344l-594 -273z" />
<glyph unicode="&#x1e83;" horiz-adv-x="2820" d="M-2 1597h436l258 -952l299 952h365l299 -950l258 950h438l-448 -1597h-424l-305 928l-304 -928h-424zM809 1913l532 379l199 -344l-594 -273z" />
<glyph unicode="&#x1e84;" horiz-adv-x="2820" d="M-2 1597h436l258 -952l299 952h365l299 -950l258 950h438l-448 -1597h-424l-305 928l-304 -928h-424zM719 1901q0 80 58 138t141 58q81 0 138.5 -58t57.5 -138q0 -83 -57 -142t-139 -59q-83 0 -141 59t-58 142zM1235 1901q0 80 58 138t141 58q81 0 138.5 -58t57.5 -138 q0 -83 -57 -142t-139 -59q-83 0 -141 59t-58 142z" />
<glyph unicode="&#x1e85;" horiz-adv-x="2820" d="M-2 1597h436l258 -952l299 952h365l299 -950l258 950h438l-448 -1597h-424l-305 928l-304 -928h-424zM719 1901q0 80 58 138t141 58q81 0 138.5 -58t57.5 -138q0 -83 -57 -142t-139 -59q-83 0 -141 59t-58 142zM1235 1901q0 80 58 138t141 58q81 0 138.5 -58t57.5 -138 q0 -83 -57 -142t-139 -59q-83 0 -141 59t-58 142z" />
<glyph unicode="&#x1e9e;" horiz-adv-x="2281" d="M104 0v979q0 104 28.5 200.5t88.5 181.5t145.5 148.5t209 100.5t270.5 37q161 0 386.5 -41t418.5 -105v-291l-320 -247q56 -9 113 -30.5t115 -61t102.5 -90.5t73 -124.5t28.5 -158.5q0 -145 -74 -266t-207 -192t-298 -71q-178 0 -340 74.5t-264 216.5l327 207 q51 -68 122 -99.5t138 -31.5q91 0 146 45.5t55 112.5q0 104 -115 147.5t-299 -2.5l-202 279l407 317q-124 39 -317 39q-171 0 -262 -91t-91 -235v-948h-385z" />
<glyph unicode="&#x1ef2;" horiz-adv-x="2142" d="M0 1597h481l353 -579l354 579h483l-633 -1011v-586h-407v586zM469 1948l199 344l532 -379l-137 -238z" />
<glyph unicode="&#x1ef3;" horiz-adv-x="2142" d="M0 1597h481l353 -579l354 579h483l-633 -1011v-586h-407v586zM469 1948l199 344l532 -379l-137 -238z" />
<glyph unicode="&#x2000;" horiz-adv-x="1199" />
<glyph unicode="&#x2001;" horiz-adv-x="2398" />
<glyph unicode="&#x2002;" horiz-adv-x="1199" />
<glyph unicode="&#x2003;" horiz-adv-x="2398" />
<glyph unicode="&#x2004;" horiz-adv-x="799" />
<glyph unicode="&#x2005;" horiz-adv-x="599" />
<glyph unicode="&#x2006;" horiz-adv-x="399" />
<glyph unicode="&#x2007;" horiz-adv-x="399" />
<glyph unicode="&#x2008;" horiz-adv-x="299" />
<glyph unicode="&#x2009;" horiz-adv-x="479" />
<glyph unicode="&#x200a;" horiz-adv-x="133" />
<glyph unicode="&#x2010;" horiz-adv-x="1325" d="M117 475v383h620v-383h-620z" />
<glyph unicode="&#x2011;" horiz-adv-x="1325" d="M117 475v383h620v-383h-620z" />
<glyph unicode="&#x2012;" horiz-adv-x="1325" d="M117 475v383h620v-383h-620z" />
<glyph unicode="&#x2013;" horiz-adv-x="1767" d="M117 475v383h1065v-383h-1065z" />
<glyph unicode="&#x2014;" horiz-adv-x="2093" d="M117 475v383h1390v-383h-1390z" />
<glyph unicode="&#x2018;" horiz-adv-x="1130" d="M55 1085q0 118 96 256.5t279 309.5l160 -156q-111 -120 -152 -197l28 -26q29 -26 47.5 -47.5t37 -66t18.5 -93.5q0 -106 -76 -182t-182 -76t-181 76t-75 202z" />
<glyph unicode="&#x2019;" horiz-adv-x="1122" d="M76 938q109 118 151 197l-29 26q-28 26 -46.5 47.5t-37 66t-18.5 93.5q0 106 76 182t182 76t181 -76t75 -202q0 -119 -95.5 -257.5t-278.5 -308.5z" />
<glyph unicode="&#x201a;" horiz-adv-x="1132" d="M51 -207q111 120 152 197l-29 26q-28 26 -46.5 47.5t-37 66t-18.5 93.5q0 106 76 182t182 76t181 -76t75 -202q0 -118 -95.5 -256t-279.5 -309z" />
<glyph unicode="&#x201c;" horiz-adv-x="1679" d="M55 1085q0 118 96 256.5t279 309.5l160 -156q-111 -120 -152 -197l28 -26q29 -26 47.5 -47.5t37 -66t18.5 -93.5q0 -106 -76 -182t-182 -76t-181 76t-75 202zM604 1085q0 118 96 256.5t279 309.5l160 -156q-111 -120 -152 -197l29 -26q28 -26 46.5 -47.5t37 -66 t18.5 -93.5q0 -106 -76 -182t-182 -76t-181 76t-75 202z" />
<glyph unicode="&#x201d;" horiz-adv-x="1673" d="M76 938q109 118 151 197l-29 26q-28 26 -46.5 47.5t-37 66t-18.5 93.5q0 106 76 182t182 76t181 -76t75 -202q0 -119 -95.5 -257.5t-278.5 -308.5zM627 938q109 118 151 197l-28 26q-29 26 -47.5 47.5t-37 66t-18.5 93.5q0 106 76 182t182 76t181 -76t75 -202 q0 -118 -96 -256.5t-279 -309.5z" />
<glyph unicode="&#x201e;" horiz-adv-x="1683" d="M51 -207q111 120 152 197l-29 26q-28 26 -46.5 47.5t-37 66t-18.5 93.5q0 106 76 182t182 76t181 -76t75 -202q0 -118 -95.5 -256t-279.5 -309zM602 -207q111 120 152 197l-28 26q-29 26 -47.5 47.5t-37 66t-18.5 93.5q0 106 76 182t182 76t181 -76t75 -202 q0 -118 -95.5 -256t-279.5 -309z" />
<glyph unicode="&#x2020;" horiz-adv-x="1472" d="M76 774v307h239v107q-73 73 -73 180q0 106 76 182t182 76t182 -76t76 -182q0 -103 -70 -176v-111h238v-307h-238v-1075h-373v1075h-239z" />
<glyph unicode="&#x2021;" horiz-adv-x="1484" d="M82 344v307h240v123h-240v307h240v107q-74 74 -74 180t76 182t182 76t182 -76t76 -182q0 -103 -70 -176v-111h238v-307h-238v-123h238v-307h-238v-645h-372v645h-240z" />
<glyph unicode="&#x2022;" horiz-adv-x="1396" d="M137 666q0 131 97 227t229 96q133 0 230.5 -96t97.5 -227q0 -135 -97 -232.5t-231 -97.5q-132 0 -229 97.5t-97 232.5z" />
<glyph unicode="&#x2026;" horiz-adv-x="2297" d="M70 223q0 106 76 182t182 76t182 -76t76 -182t-76 -182t-182 -76t-182 76t-76 182zM659 223q0 106 76.5 182t182.5 76t182 -76t76 -182t-76 -182t-182 -76t-182.5 76t-76.5 182zM1241 223q0 106 76 182t182 76t182 -76t76 -182t-76 -182t-182 -76t-182 76t-76 182z" />
<glyph unicode="&#x202f;" horiz-adv-x="479" />
<glyph unicode="&#x2030;" horiz-adv-x="3651" d="M72 1180q0 186 131 317t317 131q121 0 224.5 -60t164 -163t60.5 -225q0 -185 -132 -316t-317 -131q-186 0 -317 130.5t-131 316.5zM324 0l1151 1597h444l-1151 -1597h-444zM414 1180q0 -44 31 -75.5t75 -31.5t76.5 31.5t32.5 75.5t-32.5 76t-76.5 32t-75 -32t-31 -76z M1268 410q0 186 131 317t317 131q121 0 224.5 -60t164 -163t60.5 -225q0 -185 -132 -316t-317 -131q-186 0 -317 130.5t-131 316.5zM1610 410q0 -44 31 -75.5t75 -31.5t76.5 31.5t32.5 75.5t-32.5 76t-76.5 32t-75 -32t-31 -76zM2216 410q0 186 131 317t317 131 q121 0 224.5 -60t164 -163t60.5 -225q0 -185 -132 -316t-317 -131q-186 0 -317 130.5t-131 316.5zM2558 410q0 -44 31 -75.5t75 -31.5t76.5 31.5t32.5 75.5t-32.5 76t-76.5 32t-75 -32t-31 -76z" />
<glyph unicode="&#x2039;" horiz-adv-x="1284" d="M98 590v317l580 514v-483l-213 -188l213 -191v-481z" />
<glyph unicode="&#x203a;" horiz-adv-x="1284" d="M135 78v483l213 189l-213 190v481l580 -512v-317z" />
<glyph unicode="&#x2044;" horiz-adv-x="1746" d="M-51 0l946 1597h432l-946 -1597h-432z" />
<glyph unicode="&#x205f;" horiz-adv-x="599" />
<glyph unicode="&#x2070;" horiz-adv-x="1476" d="M43 1079q0 104 29.5 200t85.5 172t144.5 121.5t197.5 45.5q110 0 200 -45.5t146.5 -121.5t86.5 -172t30 -200q0 -105 -30 -201t-86.5 -172t-146 -121.5t-200.5 -45.5q-109 0 -197.5 45.5t-144.5 121.5t-85.5 172t-29.5 201zM326 1079q0 -123 49 -195.5t125 -72.5 q77 0 128.5 72.5t51.5 195.5q0 121 -51.5 192.5t-128.5 71.5q-76 0 -125 -71.5t-49 -192.5z" />
<glyph unicode="&#x2074;" horiz-adv-x="1388" d="M20 733v219l381 645h314l-353 -598h150v187h274v-187h105v-266h-105v-174h-274v174h-492z" />
<glyph unicode="&#x2075;" horiz-adv-x="1376" d="M20 768l240 141q79 -94 182 -94q60 0 96.5 27t36.5 69q0 36 -25 65.5t-79 29.5q-77 0 -160 -74l-239 112l104 553h612v-286h-401l-14 -72q45 16 137 16q153 0 253.5 -98t100.5 -246q0 -162 -119.5 -267t-300.5 -105q-140 0 -249.5 64t-174.5 165z" />
<glyph unicode="&#x2076;" horiz-adv-x="1374" d="M37 932q0 140 104 276l301 389h344l-243 -319q142 -12 233.5 -103.5t91.5 -232.5q0 -171 -120 -287t-291 -116q-176 0 -298 116t-122 277zM313 944q0 -58 40.5 -93.5t101.5 -35.5q58 0 97.5 36.5t39.5 90.5q0 50 -40 85.5t-101 35.5q-63 0 -111 -51q-27 -38 -27 -68z" />
<glyph unicode="&#x2077;" horiz-adv-x="1269" d="M43 559l416 756h-416v282h743v-227l-421 -811h-322z" />
<glyph unicode="&#x2078;" horiz-adv-x="1415" d="M41 868q0 160 135 242q-92 69 -92 197q0 138 114 224.5t275 86.5q103 0 191.5 -37.5t143 -109.5t54.5 -164q0 -127 -96 -197q137 -83 137 -242q0 -144 -126 -236.5t-304 -92.5q-181 0 -306.5 92t-125.5 237zM330 893q0 -41 39 -73t104 -32t103 32t38 73q0 42 -38 74 t-103 32q-66 0 -104.5 -31.5t-38.5 -74.5zM362 1296q0 -35 29.5 -61.5t81.5 -26.5q51 0 79 26.5t28 61.5q0 33 -28.5 58.5t-78.5 25.5q-52 0 -81.5 -26t-29.5 -58z" />
<glyph unicode="&#x2079;" horiz-adv-x="1372" d="M35 1214q0 171 120 287.5t291 116.5q176 0 298 -116t122 -277q0 -141 -104 -277l-301 -389h-344l243 320q-142 12 -233.5 103t-91.5 232zM311 1214q0 -50 40.5 -85t101.5 -35q62 0 110 51q27 37 27 67q0 58 -40 93.5t-101 35.5q-59 0 -98.5 -36.5t-39.5 -90.5z" />
<glyph unicode="&#x20ac;" horiz-adv-x="2334" d="M86 489v267h98q-2 14 -2 43v26h-96v267h152q93 237 310.5 386.5t481.5 149.5q243 0 445.5 -124.5t310.5 -329.5l-373 -168q-55 103 -157 165t-226 62q-93 0 -176.5 -37.5t-144.5 -103.5h454v-267h-567v-26q0 -29 2 -43h479v-267h-352q124 -124 305 -124q125 0 226.5 61.5 t156.5 165.5l375 -164q-106 -207 -310 -333t-448 -126q-260 0 -475 144.5t-311 375.5h-158z" />
<glyph unicode="&#x2122;" horiz-adv-x="2250" d="M84 1315v282h664v-282h-189v-397h-287v397h-188zM803 918v679h297l127 -231l131 231h295v-679h-285v237l-94 -166h-92l-92 164v-235h-287z" />
<glyph unicode="&#x2212;" horiz-adv-x="1656" d="M117 563v371h952v-371h-952z" />
<glyph unicode="&#x25fc;" horiz-adv-x="1597" d="M0 0v1597h1597v-1597h-1597z" />
<glyph unicode="&#xe001;" horiz-adv-x="2424" d="M80 596q0 160 76 263.5t196 148.5q-71 101 -71 237q0 88 33 161t88 120t125 72.5t145 25.5q145 0 245.5 -84t100.5 -205q0 -78 -43 -124t-109 -46q-60 0 -94.5 37.5t-34.5 83.5q0 64 55 97.5t121 -9.5q7 10 7 23q0 43 -57.5 85t-135.5 42q-114 0 -197.5 -90t-83.5 -228 q0 -90 39 -172h37q81 0 146 -34t65 -99q0 -43 -31.5 -66.5t-83.5 -23.5q-56 0 -101 27t-95 84q-77 -16 -130.5 -90.5t-53.5 -184.5q0 -85 36.5 -162.5t106.5 -139.5t184 -99t256 -37q177 0 319.5 54t226 156t83.5 234q0 92 -37 171t-90 132q-54 -5 -94 -10t-84.5 -14 t-75 -22.5t-56.5 -33t-40 -47.5t-15 -63q-3 -63 31.5 -94t71.5 -29q-44 33 -41 94q3 55 36.5 86t82.5 31q52 0 87.5 -35t35.5 -92q0 -69 -51.5 -114.5t-129.5 -45.5q-44 0 -85 16t-75.5 46.5t-55.5 81.5t-21 116q0 81 34 141.5t91 95.5t131.5 59t156 37t163.5 23t156.5 23.5 t131.5 33t91 56t34 88.5q0 72 -57 110t-123 38q-59 0 -66 -27q66 -39 66 -110q0 -54 -35.5 -88.5t-89.5 -34.5q-57 0 -91 39t-34 88q0 32 15 66.5t42.5 66.5t74.5 52t105 20q117 0 199 -80t82 -221q0 -64 -18.5 -115t-54.5 -86t-80.5 -59.5t-106.5 -40t-120.5 -23.5 t-133.5 -14q25 -24 49 -55t50 -79t41.5 -115t15.5 -141q0 -119 -42 -222t-113.5 -176.5t-166 -126t-200.5 -78t-216 -25.5q-204 0 -374.5 84.5t-270.5 234t-100 330.5z" />
<glyph unicode="&#xe909;" horiz-adv-x="1556" d="M47 762v250h162l24 131h-118v250h164l38 204h258l-38 -204h125l36 204h260l-38 -204h118v-250h-164l-24 -131h117v-250h-162l-37 -203h-258l37 203h-125l-37 -203h-260l37 203h-115zM467 1012h125l22 131h-122z" />
<glyph unicode="&#xe910;" horiz-adv-x="1945" d="M39 1317q0 126 87.5 213.5t213.5 87.5t213.5 -87.5t87.5 -213.5t-87.5 -213.5t-213.5 -87.5t-213.5 87.5t-87.5 213.5zM193 559l782 1038h311l-780 -1038h-313zM281 1317q0 -26 16.5 -43t42.5 -17q25 0 41 17t16 43q0 25 -16 41t-41 16q-26 0 -42.5 -16t-16.5 -41z M831 831q0 126 86.5 214t212.5 88t215 -88t89 -214t-89 -213.5t-215 -87.5t-212.5 87.5t-86.5 213.5zM1071 831q0 -26 17 -42.5t42 -16.5q26 0 43 16.5t17 42.5q0 25 -17 41.5t-43 16.5q-25 0 -42 -16.5t-17 -41.5z" />
<glyph unicode="&#xe911;" horiz-adv-x="1314" d="M59 559v201q69 28 95.5 62t29.5 81h-121v240h64q-23 64 -23 135q0 159 102 249.5t251 90.5q64 0 123.5 -19t108.5 -57t78.5 -101.5t29.5 -144.5v-22h-275v8q0 74 -71 74q-70 0 -70 -70q0 -14 4 -32t8.5 -31t14 -39.5t14.5 -40.5h227v-240h-192q-1 -12 -11 -61h334v-283 h-721z" />
<glyph unicode="&#xe912;" horiz-adv-x="1665" d="M47 870v187h59v22v11h-59v182h96q61 153 202 249.5t312 96.5q158 0 291 -82t203 -217l-258 -117q-33 70 -97 107t-139 37q-103 0 -184 -74h279v-182h-361v-11v-22h305v-187h-207q75 -59 168 -59q76 0 138.5 34.5t97.5 106.5l258 -110q-68 -137 -201.5 -220t-292.5 -83 q-167 0 -304.5 91.5t-202.5 239.5h-103z" />
<glyph unicode="&#xe999;" horiz-adv-x="1624" d="M-51 0l946 1597h309l-946 -1597h-309z" />
<glyph unicode="&#xf6c3;" horiz-adv-x="1099" d="M221 -532q17 20 35.5 43.5t34 45t18.5 25.5q-1 1 -12.5 11.5t-22.5 23.5t-23.5 32t-20 45t-7.5 54q0 74 54.5 128t130.5 54t128 -53.5t52 -142.5q0 -75 -61.5 -166t-188.5 -213z" />
<glyph unicode="&#xf6e0;" horiz-adv-x="1275" d="M49 1004q0 114 67.5 206.5t174.5 132.5v138h272v-138q134 -51 201 -176l-256 -114q-26 32 -70 32q-35 0 -59.5 -24.5t-24.5 -59.5q0 -34 24.5 -56.5t59.5 -22.5q45 0 72 30l254 -112q-30 -59 -83 -105t-118 -71v-138h-272v138q-108 40 -175 132.5t-67 207.5z" />
<glyph unicode="&#xf6e4;" horiz-adv-x="1294" d="M47 930v10h277v-2q0 -29 22.5 -52.5t73.5 -23.5q29 0 41 8.5t12 18.5q0 14 -16 22.5t-82 34.5q-47 18 -83 33.5t-84 44.5t-80 59.5t-54.5 75t-22.5 94.5q0 90 60 155.5t163 92.5v129h269v-133q102 -30 162.5 -101t60.5 -171v-8h-277v2q0 24 -22 48.5t-64 24.5 q-26 0 -37.5 -8t-11.5 -18q0 -13 17 -22t82 -34q12 -4 41.5 -14.5t50.5 -18t52.5 -21.5t54 -28t47.5 -36t40.5 -46t26 -57t10.5 -71q0 -101 -63 -170.5t-170 -94.5v-127h-269v131q-105 30 -166 101t-61 172z" />
<glyph unicode="&#xf8ff;" horiz-adv-x="1994" d="M15.5 642.5q-2.5 11.5 15.5 21.5l57 41l12 12q19 16 37 -12l33 -64q6 -12 13 -15.5t13.5 2t10.5 17.5l18 70q6 19 19.5 21t25.5 -13l47 -53q13 -15 23.5 -11.5t11.5 23.5l4 70q3 20 15.5 25t27.5 -7l58 -43q17 -12 25.5 -7t4.5 25l-8 70q-3 20 8.5 28t28.5 -1l64 -29 q19 -9 26.5 -1.5t1.5 26.5l-22 67q-8 19 0.5 29t27.5 4l15 -2q40 -77 70 -202.5t30 -217.5q-15 -18 -34.5 -27.5t-59.5 -9.5h-8q0 46 -33 72q18 -21 18 -55v-15q-32 3 -32 39q0 43 -28 72t-77 29q-41 0 -68.5 -32t-27.5 -79q0 -60 49.5 -96.5t138.5 -36.5q85 0 172 42 t156.5 112t125 154.5t86 175.5t30.5 169q0 59 -36.5 98t-94.5 39q-48 0 -85.5 -33.5t-37.5 -84.5q0 -52 30.5 -82.5t87.5 -36.5q-30 -122 -59 -174q-12 96 -43.5 178t-75.5 129q91 -120 107 -330l-29 -41q0 156 -51 287t-131 172q-5 9 2 18.5t22 12.5l70 12q19 3 21 13.5 t-15 21.5l-59 39q-15 13 -13.5 26.5t19.5 20.5l63 28q14 4 19.5 11t0 14t-19.5 12l-63 27q-24 11 -21 29q13 6 15 16l35 61q9 19 20 18t16 -20l21 -67q6 -21 18.5 -24t26.5 14l47 53q12 15 23 12.5t12 -22.5l4 -72q1 -21 14.5 -26.5t28.5 7.5l57 44q15 12 24 5.5t7 -26.5 l-10 -70q-1 -20 10.5 -27.5t28.5 1.5l63 33q19 8 26.5 0t0.5 -29l-23 -64q-6 -20 3 -30t28 -4l70 14q20 6 26.5 -2t-4.5 -27l-37 -59q-12 -17 -5.5 -29.5t26.5 -11.5l72 4q21 0 25 -11t-9 -24l-49 -53q-14 -13 -10.5 -26.5t24.5 -16.5l70 -12q43 -10 6 -39l-57 -39 q-16 -10 -15 -24t21 -21l63 -27q12 -5 16.5 -12t0 -13.5t-16.5 -11.5l-63 -26q-20 -7 -21 -22t15 -25l57 -41q11 -7 14.5 -14.5t-2 -13.5t-18.5 -9l-70 -13q-21 -3 -24.5 -16.5t10.5 -28.5l49 -49q13 -14 9 -24.5t-25 -10.5l-72 4q-20 0 -26.5 -11.5t5.5 -28.5l37 -62 q10 -17 4 -25.5t-26 -5.5l-70 19q-18 6 -27.5 -5t-3.5 -30l23 -68q8 -19 0 -26t-27 2l-63 31q-17 9 -28.5 1t-10.5 -30l10 -68q1 -21 -7.5 -25.5t-23.5 7.5l-57 43q-15 12 -28.5 5.5t-14.5 -26.5l-4 -69q-1 -20 -12 -23.5t-23 10.5l-47 56q-13 14 -26 12t-19 -22l-21 -68 q-3 -13 -9.5 -18t-13.5 -1t-13 15l-35 61q-9 19 -22 19t-25 -19l-31 -61q-6 -11 -13.5 -15t-14 1t-9.5 18l-20 68q-6 20 -19 22t-26 -12l-48 -56q-12 -14 -21.5 -10.5t-12.5 23.5l-4 69q-2 20 -15 26.5t-30 -5.5l-54 -43q-17 -13 -27 -8t-6 26l11 68q1 22 -10.5 30t-30.5 -1 l-62 -31q-19 -9 -26.5 -2t0.5 26l22 68q8 19 -1.5 30t-28.5 5l-70 -19q-20 -3 -26.5 5.5t3.5 25.5l39 62q11 17 4.5 28.5t-26.5 11.5l-72 -4q-21 0 -25 10.5t9 24.5l51 49q13 15 8.5 28.5t-25.5 16.5l-67 13q-21 4 -23.5 15.5zM492 362q42 -26 122 -26q106 0 212.5 65 t183.5 162t125.5 212t48.5 214q0 63 -41 101q24 -38 24 -84q0 -100 -47.5 -215.5t-126.5 -215.5q-85 -105 -188.5 -168t-212.5 -63q-60 0 -100 18z" />
<glyph horiz-adv-x="1671" d="M31 1597h344l227 -358l227 358h342l-260 -403h74v-215h-211l-26 -41v-8h237v-215h-237v-156h-293v156h-238v215h238v10l-25 39h-213v215h74z" />
</font>
</defs>
</svg>
